ply
format ascii 1.0
comment made by startin
element vertex 993
property float x
property float y
property float z
element face 1980
property list uchar int vertex_indices
end_header
-7.993 -6.657 60
262.22900000000004 -6.657 100
262.22900000000004 263.97 15
-7.993 263.97 30
6.64 244.192 72.979
212.232 133.542 64.5
227.207 7.453 116.287
117.585 215.27 105.561
149.559 3.685 97.394
240.213 228.525 38.083
131.038 169.205 103.889
202.289 55.814 127.099
184.237 240.275 48.214
171.363 50.452 130
27.909 146.156 119.806
177.006 189.873 59.114
215.242 165.741 62.273
35.908 108.466 114.31
25.195 43.274 75.678
76.107 159.876 132.488
19.106 82.876 97.083
127.426 207.798 105.217
101.436 97.78 144.495
245.89 51.73 105.909
96.689 237.571 86.447
214.717 123.195 65.125
208.749 221.212 41.621
117.382 106.341 150
93.159 46.276 113
127.656 161.698 111.111
177.238 238.038 54.828
209.407 188.85 60.222
199.745 169.569 74.123
128.761 62.887 131.667
35.279 26.886 77.812
232.653 157.633 47.678
75.291 92.863 128.22
166.976 225.058 69.375
5.51 24.634 70
115.643 3.824 85.204
61.522 195.894 103.704
170.954 150.818 97.051
210.984 116.102 72.833
124.683 223.902 100.34
114.381 146.063 133.162
48.144 247.839 60
129.673 25.091 106.818
53.398 225.196 73.75
131.057 206.655 103.214
123.287 162.386 115.185
237.042 19.002 115.797
245.817 233.959 36.196
69.372 177.946 120.7
18.58 28.161 70
59.151 49.678 98.333
91.577 17.489 91.125
178.808 37.443 129.916
20.408 91.372 102.333
196.429 84.879 111.447
209.226 203.236 48.816
91.327 86.837 134.545
249.136 199.465 40.627
133.043 32.774 113.095
143.992 55.26 129.727
59.53 243.504 60
139.51 233.532 88.472
233.307 110.925 65.556
122.897 195.359 110.952
30.725 191.053 92.692
209.697 227.374 40
246.489 163.648 40
182.2 51.914 130
234.656 173.706 45.534
105.971 49.45 119.286
250.113 21.497 110
42.035 98.43 113.364
102.321 183.649 122.075
147.148 229.438 84.487
108.308 147.973 136.717
56.906 127.333 128.756
86.016 46.024 109.889
85.772 43.993 107.444
166.964 246.54 61.831
133.531 175.712 101.667
66.425 20.513 83.068
133.204 130.823 133.833
93.974 252.107 73.846
40.985 150 120
210.465 252.409 37.003
46.073 18.519 77.824
190.995 83.933 115.014
172.674 44.542 130
44.766 29.11 80.156
153.519 112.76 126.296
138.238 159.849 101.841
182.69 7.898 116.078
193.321 33.648 129.741
95.267 37.853 107.889
181.232 172.275 76.111
50.439 174.376 113.75
10.109 80.97 94.333
183.747 12.89 119.385
86.085 142.291 140
243.606 213.02 41.7
174.11 159.496 88.286
88.22 161.902 135.536
217.835 248.898 36.202
239.861 113.522 59.643
250.718 204.365 40
182.6 6.259 115.288
141.04 59.636 131.522
131.431 64.356 133.261
96.223 178.687 125.667
144.311 16.326 102.083
157.259 69.789 139.8
125.286 4.498 88.061
15.56 19.214 70
251.011 132.223 45.915
210.392 22.18 124.326
150.532 249.451 70.385
206.997 165.207 70.333
54.329 44.521 93.052
219.627 202.418 48.807
73.143 17.928 83.049
237.413 183.996 45.167
93.54 249.947 76.154
96.567 239.368 85.333
106.102 32.994 108.718
251.229 253.602 30.146
236.992 115.908 59.231
69.208 116.26 134.562
32.642 252.524 65.173
225.99 142.232 54.231
79.97 234.355 74.432
184.177 95.423 112.143
111.911 102.691 150
64.948 127.797 132.782
70.715 79.539 119.103
211.824 155.06 65.909
210.617 11.046 120.87
152.211 80.446 140
16.793 225.881 70.714
139.832 79.45 143.547
236.14 17.452 116.142
242.978 42.396 109.545
242.603 243.571 33.608
247.198 109.123 59.528
99.861 191.248 117.353
162.485 24.841 117.766
112.293 214.652 106.119
225.063 27.684 120.995
110.002 30.507 108.889
224.641 49.261 120.932
167.34 127.729 110.417
233.874 161.984 46.324
239.068 147.444 44.216
203.679 220.952 42.707
197.818 130.253 79.667
185.308 46.586 130
237.581 27.584 114.859
208.768 145.116 68.636
213.484 49.528 125.052
37.633 93.933 108.818
36.277 38.138 78.007
247.066 243.512 33.167
220.704 56.338 121.54
75.309 25.699 90.571
25.976 207.85 79.643
156.931 34.654 120.861
238.595 247.063 32.957
86.83 84.608 131.161
234.802 134.796 49.134
146.756 21.558 107.361
22.889 238.987 65.568
2.956 151.812 110
227.306 11.143 118.117
248.951 12.543 110.754
143.265 26.618 110.513
162.545 49.502 130
131.967 235.14 91.659
224.107 179.148 54.618
194.938 128.171 83.704
127.264 147.375 121.552
156.258 125.04 119.5
134.494 163.095 102.879
97.775 106.295 146.182
52.016 4.656 70
139.273 85.575 145.505
169.453 203.749 65.625
103.511 122.863 148.415
96.527 107.914 145.892
135.863 170.972 99.5
63.917 206.075 92.8
235.01 134.989 48.688
80.596 202.522 105.667
11.662 81.911 95
154.038 101.574 132.8
176.328 147.495 95.233
89.329 97.9 138.3
103.322 45.337 115.98
21.428 129.765 114.963
188.01 251.554 44.335
90.839 181.723 123.023
186.097 131.536 92.188
132.046 183.943 102.778
64.864 81.85 115.732
116.215 205.841 110.304
177.906 175.286 72.778
145.38 232.429 84.487
10.054 146.581 111.687
95.218 87.911 136.818
206.236 163.561 70.357
46.1 127.387 122.429
17.479 10.604 70
127.07 222.447 100.067
225.446 23.309 120.871
66.552 204.585 96.4
98.905 22.933 98.243
158.853 253.811 63.125
236.108 175.466 44.328
9.574 126.428 112.435
65.572 164.457 125.726
70.902 157.113 130.351
94.62 26.441 99.429
27.141 25.72 73.2
89.307 54.814 116.631
174.406 225.162 60.357
209.218 19.006 123.645
227.332 18.955 119.78
160.686 69.592 138.88
77.519 218.186 86.25
43.1 132.009 120
65.423 174.843 120.849
138.836 36.223 116.429
137.29 231.715 90.934
170.463 146.562 99.884
122.879 233.017 96.176
67.656 143.896 131.132
149.352 26.097 112.556
237.257 203.479 45.341
239.416 112.919 60.5
137.21 153.682 108.206
147.928 216.414 89.091
51.786 122.246 125.708
195.843 139.385 81.5
65.266 221.793 77.5
84.03 101.562 137.13
7.148 150.484 110
200.702 117.75 80.556
142.762 219.744 92.308
52.508 50.712 92.727
247.343 31.577 107.257
244.021 88.251 84.167
95.999 221.961 96.25
58.856 90.86 117.976
222.038 30.513 121.931
100.513 201.406 111.786
202.277 115.883 80
213.354 93.409 96.071
19.096 166.175 109.643
19.378 19.397 70
54.057 191.988 103.182
57.921 101.167 123.488
197.89 6.754 115.797
236.355 212.589 43.584
66.453 118.487 133.669
194.984 126.338 84.375
44.331 247.288 60
222.922 131.709 56.591
41.473 100.486 114.091
74.319 78.296 121.354
192.266 242.87 42.416
53.316 152.231 123.978
120.659 202.501 110.345
114.931 189.951 116.417
147.48 149.749 106.818
92.69 247.432 76.923
54.786 194.617 100.455
193.197 69.76 123.501
116.58 223.61 101.711
230.909 119.753 58.462
184.948 33.378 129.19
238.9 68.652 107.162
133.611 31.12 112.381
206.539 62.32 123.608
131.276 113.52 148.385
203.026 157.562 72.821
138.648 86.808 146.212
68.628 197.012 105.185
72.186 123.35 136.886
144.632 217.68 91.282
162.66 152.972 98
190.527 226.153 46.57
104.053 6.801 85.762
12.736 168.931 109.286
192.783 67.459 125.002
63.041 145.66 128.869
59.695 203.11 94.286
44.629 46.697 84.091
22.72 222.517 70
110.804 48.581 120.4
19.735 201.692 85.405
194.473 75.561 119.605
37.342 31.067 79
67.745 197.225 104.697
29.811 118.923 114.837
90.68 166.339 132.761
227.672 49.663 119.595
150.958 31.138 116.333
100.607 211.852 105.238
248.865 96.605 73.333
90.155 188.704 118.298
128.431 196.84 106.25
154.031 42.512 124.712
44.039 151.787 120.111
80.597 176.159 124.884
24.625 166.627 110
74.147 116.55 136.928
76.824 154.772 134.015
38.902 163.981 115.842
134.267 49.19 124.6
34.449 119.996 116.506
164.176 166.708 84.286
145.459 54.993 129.787
196.157 12.313 121.185
149.332 111.682 131.364
59.456 243.194 60
224.894 92.302 91.731
27.242 89.975 102.778
190.085 63.033 128.003
61.519 75.057 110.128
9.166 153.867 110.582
250.75 61.689 102
168.54 109.264 116.471
185.866 113.723 100.741
242.529 93.009 78.889
96.664 147.293 140
24.371 82.319 98.25
117.388 100.414 150
87.16 78.353 128.889
15.137 60.581 84.773
85.345 113.634 141.774
194.181 117.398 87.5
81.076 172.097 127.907
5.124 127.011 111
252.229 231.629 35.942
218.199 40.172 123.624
39.484 196.117 91.081
250.738 164.14 40
167.786 214.407 69.286
128.713 245.357 88.171
109.813 61.319 127.872
27.696 169.676 108.571
131.892 141.704 123.387
237.243 123.863 52.821
226.244 122.939 58.724
142.687 237.641 83.571
219.848 221.408 41.763
88.048 200.544 110.213
71.155 171.332 125
85.676 127.642 142.408
183.957 182.789 65.006
175.72 9.657 115.903
92.746 138.013 141.023
143.236 182.865 90.556
18.993 229.962 69.141
213.151 180.692 62.351
8.436 135.702 111.716
11.887 185.336 97.909
157.65 164.898 88.857
153.89 26.355 114.333
213.34 164.207 64.091
134.383 142.126 120.484
19.244 144.466 116.164
94.485 7.365 84.324
108.327 120.547 149.643
74.543 119.255 137.421
61.624 162.446 124.643
74.743 198.444 107.407
180.003 153.853 89.722
69.521 58.406 108.251
207.703 121.367 71.667
14 226.014 71.758
45.684 134.192 120.741
247.291 191.668 41.178
173.568 219.836 61.875
130.684 143.51 122.097
123.134 193.259 110.833
4.594 94.085 101.775
185.453 20.548 123.382
73.342 117.011 136.586
82.826 168.338 130.69
124.611 137.612 131.667
239.907 26.08 113.661
168.624 248.651 59.653
98.063 136.05 142.108
242.845 130.704 47.973
159.684 195.579 75.5
251.835 122.982 49.9
14.573 126.226 113.031
74.089 168.449 128
230.635 208.002 45.623
68.324 175.771 121.5
157.113 115.343 120.758
53.737 237.61 63.714
19.812 188.516 94.4
113.025 217.127 104.664
14.378 11.969 70
36.279 7.341 70
34.463 181.87 101.111
174.673 73.197 132.105
141.043 228.167 89.615
126.637 200.179 107.405
168.877 102.85 120
132.153 59.084 130.217
185.541 212.678 50.455
243.959 189.731 42.698
168.47 28.617 122.326
96.404 66.411 126.635
74.25 5.945 74.839
2.396 141.075 110
180.197 89.306 118.553
146.53 115.121 133.269
14.964 232.086 69.93
72.163 65.191 113.214
196.286 210.558 47.838
19.434 25.172 70
215.238 15.385 121.616
10.191 47.908 77.055
64.643 143.271 129.55
72.849 101.402 131.271
28.079 101.873 109.127
155.619 131.902 118.068
203.758 131.281 73.5
181.7 146.145 92
127.67 102.923 150
211.815 87.034 103.214
218.849 118.024 66.021
127.003 127.355 139.833
155.894 15.567 108.401
107.719 40.221 114.444
153.047 109.439 128.333
199.6 210.459 46.856
31.517 113.834 114.688
25.378 105.882 110.066
122.818 242.456 91.842
9.66 205.16 86.04
148.469 243.79 75.333
146.667 124.933 128.788
112.013 76.725 137.177
30.41 158.076 116
195.373 62.229 126.462
122.266 48.41 122.642
83.488 82.983 128.646
24.315 16.927 70
130.68 119.941 145.103
37.593 241.075 62.29
90.431 91.737 136.08
172.49 77.4 131.577
235.34 141.184 47.056
166.987 10.491 112.627
102.318 151.187 138.95
183.07 31.749 128.131
204.628 35.992 128.243
76.93 239.293 68.256
225.878 129.417 55.031
155.087 198.651 79.677
66.635 241.618 60
135.873 82.715 144.737
136.17 117.898 142.263
153.536 119.143 123.5
102.014 202.717 111.525
2.655 155.364 110
108.131 252.087 82
243.439 72.263 101.757
164.417 251.125 60.119
121.221 42.819 118.889
131.717 14.424 96.66
175.615 121.316 105.455
22.705 6.036 70
153.65 233.305 77.821
222.011 234.746 38.236
100.717 19.449 96.562
117.515 116.841 150
44.878 53.443 85.714
197.342 95.372 101.667
175.768 244.455 55.5
173.759 79.563 130.118
20.25 5.002 70
9.667 35.283 70.305
63.959 44.988 97.824
216.486 145.578 61.364
107.318 183.592 121.607
221.52 142.927 57.206
216.69 210.989 45.877
165.776 47.47 130
143.826 5.01 93.157
7.884 15.944 70
183.526 56.88 130
56.701 243.714 60
47.529 52.944 88.5
130.632 219.465 100.214
219.789 146.888 58.846
65.948 216.246 82.759
186.828 40.837 130
64.076 241.086 60
51.947 115.35 124.776
154.901 221.136 81.364
45.347 98.183 115.1
76.852 222.02 81.25
90.981 185.687 120.233
236.939 250.781 32.673
160.42 252.912 62.353
111.629 95.307 147.5
139.151 195.396 96.5
72.041 76.003 119.103
208.072 120.546 71.364
221.541 42.48 122.346
83.123 152.004 137.791
93.793 146.77 140
186.557 169.085 78.75
151.258 119.519 125.5
182.913 26.908 125.519
154.139 16.062 108.11
11.184 229.236 72.213
251.317 59.443 100.97
112.492 248.768 87.143
154.622 222.756 81.364
199.097 128.926 78.333
160.316 30.267 120.094
193.512 72.837 121.983
141.182 75.016 141.667
87.654 110.533 141.797
243.291 247.911 32.323
47.545 156.037 121.059
239.301 251.783 31.977
247.509 134.868 45.488
53.786 148.426 124.271
8.164 121.629 110.861
39.304 5.545 70
51.345 4.086 70
204.541 186.039 63.075
172.533 246.61 57.125
171.226 153.719 94.231
91.299 156.323 138.615
234.249 126.078 52.024
190.565 150.04 83.75
198.048 3.505 110.769
208.222 57.588 124.702
97.799 227.727 93.75
27.187 55.51 82.143
87.748 13.791 86.22
29.413 66.156 90.385
238.419 238.426 35.45
177.633 76.205 128.667
120.47 137.425 134.459
224.948 191.838 52.433
41.73 244.233 60.333
30.896 23.231 74.695
57.067 126.416 129.566
140.734 21.171 105.152
239.535 235.714 36.191
37.143 24.558 78.564
173.597 99.012 118.171
198.231 141.455 78.182
233.367 131.897 50
80.977 61.709 116.111
237.84 220.785 40.787
81.318 99.563 134.722
198.72 39.042 130
244.483 252.834 30.951
150.065 9.258 100.972
77.878 179.634 122.093
197.487 55.57 128.734
174.429 145.52 97.558
206.371 79.361 112.266
37.086 113.78 116.615
5.384 62.168 84.474
250.023 192.897 40
71.604 94.607 126.915
179.287 171.288 77.222
131.892 102.744 150
153.878 169.76 87
195.066 237.078 41.369
203.99 244.347 39.318
91.031 107.109 143.017
181.343 148.236 91.279
81.248 248.002 66.379
145.787 138.407 119.286
202.067 208.255 46.731
152.252 106.467 131.818
182.784 134.061 95
249.966 34.944 104.138
43.015 97.239 113.5
143.697 96.652 145.013
69.682 179.454 119.457
74.564 228.661 74.659
239.264 179.631 42.91
106.771 55.133 123.404
102.145 109.448 149.988
106.89 176.482 125.492
183.61 141.644 91.714
232.988 62.366 113.675
131.946 167.868 104.444
222.052 134.31 56.071
6.786 115.84 108.734
179.937 139.46 95.714
145.329 160.061 97.564
11.142 134.456 113.239
11.808 103.482 105.833
156.529 27.963 116.333
152.699 100.773 135.6
113.228 205.033 110.664
66.039 248.577 60
99.322 115.741 148.727
107.789 240.464 90.802
166.157 200.48 69.286
187.891 147.352 86.667
152.431 145.568 109.259
33.409 39.43 76.789
188.792 220.728 48.345
204.329 108.667 84.394
8.618 119.448 110.209
244.685 90.904 81.667
55.194 149.344 125.074
251.877 84.331 85
73.504 32.747 94.535
223.48 235.908 37.868
171.707 50.488 130
173.919 56.142 130
206.789 35.607 127.643
63.112 148.559 128.608
138.198 164.632 98.953
58.332 139.214 126.964
169.36 238.936 62.903
62.273 36.242 92.717
12.738 140.387 113.179
135.068 47.638 123.438
57.631 187.016 108.636
40.093 126.818 119.79
34.423 129.488 118.611
195.755 133.587 81.852
37.293 236.776 65.223
128.868 123.544 143.028
168.908 182.768 69.342
194.512 86.19 110.343
148.222 252.764 70
84.303 113.296 141.29
78.394 220.939 85
246.081 87.142 84.583
133.612 50.684 125
166.121 100.456 123.077
48.003 117.743 123.25
71.807 63.491 111.548
110.783 147.504 135.312
233.703 122.753 55.357
161.271 16.374 112.843
232.381 212.001 44.046
186.396 163.384 82.806
144.828 65.21 136.087
211.467 99.887 90.357
212.417 247.023 37.227
249.902 89.787 80.833
236.35 204.99 45.662
217.061 131.939 60
204.827 244.878 39.153
238.441 249.252 32.549
171.553 219.919 64.375
218.701 11.754 120.033
209.725 136.537 67.5
186.707 195.701 52.542
43.861 113.399 119.31
21.243 146.65 116.94
44.686 48.052 84.688
57.601 81.083 111.341
172.058 37.218 128.357
110.187 181.471 121.721
64.293 148.698 129.021
73.959 226.391 75.735
13.48 46.622 77.021
167.69 37.925 126.528
115.272 251.913 82.667
65.496 40.095 96.63
236.496 153.049 45
150.042 173.45 86.556
2.007 71.974 89.649
125.233 28.762 109.545
215.129 159.138 62.273
187.802 102.349 104.697
235.779 85.808 92.241
125.154 89.797 147.451
95.885 80.505 133.333
102.602 40.818 112.647
182.138 170.494 78.333
240.796 200.77 44.377
242.144 132.811 47.162
227.311 213.776 44.339
201.851 203.986 48.654
245.261 97.117 73.333
46.172 118.647 122.167
3.758 107.485 105.974
204.686 154.852 72.083
65.633 232.588 66.818
66.026 192.437 108.889
21.26 90.877 102.045
106.377 94.118 145.093
178.535 19.135 121.412
66.546 34.537 93.152
116.536 98.307 150
229.958 164.863 49.583
175.938 63.693 131.135
77.149 81.153 124.479
96.892 127.25 145.981
181.138 61.624 130
158.297 174.843 80.875
231.315 25.604 118.185
59.162 46.388 97.298
90.864 234.156 84.286
110.496 194.509 115.975
26.462 119.637 114.3
216.263 253.548 35.882
140.152 67.437 136.757
37.157 114.8 116.776
235.057 75.111 103
170.073 97.149 121.618
151.501 152.884 101.852
119.986 244.797 90.789
93.648 44.172 111.667
197.774 71.11 121.228
183.986 53.968 130
213.631 238.567 38.898
112.812 241.2 91.943
113.724 166.43 123.939
155.567 98.689 133.654
58.736 146.201 126.606
145.832 94.781 144.216
5.959 157.1 110
79.708 143.699 137.821
62.398 139.383 129.107
143.352 88.744 144.798
82.442 190.258 115.682
195.106 109.773 91
69.297 120.583 135.344
21.56 116.192 112.15
170.876 159.916 89.375
230.25 202.241 47.599
221.753 228.895 39.624
249.897 217.923 40
228.449 214.867 43.879
135.589 58.882 130.216
233.979 207.262 45.604
211.671 144.046 65.909
228.792 78.098 103.906
111.618 140.544 139.324
248.535 134.826 45.359
62.316 171.501 121.316
62.614 129.251 131.639
129.599 169.592 106.111
87.356 9.76 83.293
51.398 31.567 85.089
174.726 103.622 115.488
191.69 59.713 129.535
195.71 105.063 94.821
54.029 126.7 127.669
210.418 151.458 66.818
137.16 53.064 127.188
251.511 67.005 99.771
197.607 236.591 40.3
176.708 141.792 97.714
196.551 221.884 45
52.376 25.122 82.767
156.934 128.626 118.75
110.634 60.616 127.447
95.102 144.343 140
219.266 8.322 118.399
53.299 88.419 114.296
88.692 109.684 141.953
114.019 208.759 109.156
224.967 20.448 120.521
143.265 194.496 92.069
78.648 22.525 89.146
104.253 99.49 146.955
191.544 234.101 44.425
101.64 226.704 96.064
43.219 78.6 102.386
110.887 129.456 144.783
114.467 111.65 150
81.924 20.422 89.146
26.628 26.982 72.4
237.761 154.471 44.146
228.966 32.13 119.688
248.828 201.453 40.842
122.396 180.527 113.056
107.711 21.116 100.556
66.135 3.343 70.25
70.363 214.897 86.957
120.642 171.225 115.667
114.221 134.568 140.673
189.82 175.141 72.913
155.13 93.37 136.724
82.159 204.705 104.333
45.527 26.479 80
229.385 44.732 118.444
43.123 23.707 80
171.281 27.892 122.797
77.934 10.828 79.886
250.583 96.559 72.755
43.709 56.287 86.28
40.939 27.812 80
130.706 73.282 138.98
121.271 92.565 148.431
233.612 250.043 33.166
227.017 21.3 120.013
216.871 136.501 60.5
24.818 49.724 78.795
2.424 130.963 110
35.51 82.896 102.212
73.814 221.303 80.435
209.44 78.757 112.703
231.499 130.05 51.232
16.767 228.507 70
226.546 85.724 98.269
53.795 3.462 70
46.527 21.701 79.689
196.571 218.856 45.568
58.397 179.28 114.674
215.541 222.471 41.136
181.461 144.225 92.571
78.425 8.919 78.977
73.315 70.332 116.471
99.607 102.641 145.714
155.849 203.315 80.556
87.386 27.523 97.375
201.827 88.906 105.286
188.7 182.295 65.625
23.674 126.854 114.81
77.478 22.139 88.659
59.984 95.415 121.3
209.506 65.118 121.709
29.843 75.795 96.275
16.276 196.281 90.2
85.684 153.386 138.373
241.906 14.106 113.847
8.775 240.512 72.045
236.838 156.212 44.583
195.122 221.029 45.476
222.298 156.301 56.111
189.055 162.475 81.828
8.846 135.733 111.716
210.708 100.121 89.63
229.335 231.646 38.124
144.285 101.995 142.625
139.395 196.063 96.5
249.43 76.778 94.865
45.182 221.435 75.909
207.872 246.642 38.253
224.129 122.724 59.235
195.958 52.463 130
60.617 253.97 71.25
39.264 31.62 80
187.055 99.074 106.667
216.299 179.895 60.901
198.735 47.321 130
222.256 41.466 122.07
83.343 49.821 110.812
60.8 116.774 130.611
173.314 58.634 130
144.011 26.3 110.769
8.039 61.664 83.947
181.31 197.77 54.036
141.297 45.229 123.191
77.279 130.006 139.112
179.336 118.6 103.75
15.889 238.017 68.361
230.036 160.322 48.775
160.036 168.494 84.189
120.348 112.916 150
17.587 30.281 70
89.401 93.754 136.4
109.176 61.687 127.872
30.998 174.183 105.385
109.067 249.146 85.429
114.677 243.585 91.207
36.542 180.011 102.692
85.374 138.034 140.779
42.983 90.079 109.519
94.778 132.987 143.721
245.362 45.086 106.609
164.626 36.049 124.969
122.336 16.795 98.333
75.693 240.309 66.628
146.733 237.804 80.667
91.902 200.656 110.8
14.646 75.11 91.667
240.359 85.441 89.583
77.363 133.11 138.745
177.764 173.676 75
46.838 221.231 76.136
25.19 105.735 110.066
140.036 163.471 98.188
121.053 121.826 147.075
124.137 221.104 101.248
57.431 111.726 127.5
234.368 161.343 45.507
77.261 113.255 137.5
29.324 208.392 79.642
149.933 192.811 85.5
225.132 215.011 43.87
160.331 116.177 118.191
198.882 108.383 89.167
137.632 86.914 146.616
70.471 74.315 116.538
155.614 203.088 80.556
120.871 81.209 141.765
49.095 248.979 60
30.071 144.073 120
108.232 38.708 113.333
126.261 225.285 99.203
250.402 225.643 37.814
86.316 99.701 137.3
40.284 43.526 80.455
67.466 14.665 78.75
116.411 168.237 120.606
109.378 123.014 147.788
235.961 215.371 42.697
240.574 186.376 43.824
129.861 64.652 133
217.487 58.432 121.944
211.06 90.664 100
10.028 7.17 70
89.113 171.83 129.767
127.265 182.143 108.333
68.102 49.118 103.158
213.125 187.185 59.576
30.658 220.312 71.22
168.179 113.512 114.118
93.004 46.088 113
8.867 50.569 78.246
167.372 129.634 110.25
167.898 213.388 69.048
102.247 135.717 142.686
63.751 67.085 107.879
175.899 158.567 88.857
23.561 136.682 117.131
19.821 245.922 64.744
61.421 130.896 130.984
164.163 29.302 121.364
187.831 243.673 45.804
237.473 244.792 33.733
86.262 88.158 132.627
164.058 50.839 130
179.337 148.72 92.674
25.993 93.38 104.386
91.601 149.633 140
8.842 181.407 101.354
238.298 159.079 42.5
63.248 238.139 61.364
184.448 36.365 130
106.533 29.638 106.548
32.241 252.276 65.173
10.091 77.584 92.333
20.789 218.171 72.695
140.896 178.264 93.889
188.795 199.638 50
247.726 226.197 37.89
230.634 183.422 50.378
186.842 190.355 56.942
8.605 43.5 74.561
123.777 160.608 115.926
190.045 80.816 117.578
126.282 217.222 102.487
163.567 179.742 74.625
64.57 22.425 84
184.398 202.828 50.455
52.819 223.308 75.417
172.487 95.137 121.429
40.36 239.432 63.487
104.576 23.386 101.31
218.044 252.33 35.535
41.881 8.11 72.353
175.991 203.852 58.636
136.134 117.157 142.263
76.116 207.882 99.038
211.767 156.208 65.909
183.971 43.727 130
237.541 135.537 47.599
190.057 18.699 123.099
123.058 4.182 87.653
21.669 111.673 110.806
165.648 237.802 67.097
194.494 158.001 79.524
107.344 238.408 91.872
44.547 88.099 109.744
3 0 1 8
3 0 8 39
3 0 39 794
3 0 794 822
3 0 822 540
3 0 540 186
3 0 186 46
3 0 46 55
3 0 55 539
3 0 539 979
3 0 979 123
3 0 123 151
3 0 151 408
3 0 408 13
3 0 13 223
3 0 223 780
3 0 780 836
3 0 836 84
3 0 84 488
3 0 488 479
3 0 479 89
3 0 89 823
3 0 823 28
3 0 28 770
3 0 770 213
3 0 213 92
3 0 92 562
3 0 562 454
3 0 454 929
3 0 929 558
3 0 558 34
3 0 34 407
3 0 407 224
3 0 224 250
3 0 250 260
3 0 260 22
3 0 22 788
3 0 788 163
3 0 163 116
3 0 116 426
3 0 426 36
3 0 36 205
3 0 205 807
3 0 807 29
3 0 29 44
3 0 44 10
3 0 10 579
3 0 579 53
3 0 53 497
3 0 497 18
3 0 18 38
3 0 38 679
3 0 679 17
3 0 17 328
3 0 328 337
3 0 337 340
3 0 340 428
3 0 428 967
3 0 967 20
3 0 20 937
3 0 937 893
3 0 893 743
3 0 743 835
3 0 835 14
3 0 14 868
3 0 868 195
3 0 195 960
3 0 960 100
3 0 100 577
3 0 577 685
3 0 685 388
3 0 388 700
3 0 700 344
3 0 344 815
3 0 815 420
3 0 420 174
3 0 174 472
3 0 472 4
3 0 4 3
3 1 2 108
3 1 108 578
3 1 578 61
3 1 61 348
3 1 348 51
3 1 51 398
3 1 398 117
3 1 117 70
3 1 70 416
3 1 416 9
3 1 9 754
3 1 754 536
3 1 536 625
3 1 625 662
3 1 662 310
3 1 310 146
3 1 146 766
3 1 766 525
3 1 525 332
3 1 332 23
3 1 23 592
3 1 592 282
3 1 282 887
3 1 887 723
3 1 723 5
3 1 5 25
3 1 25 251
3 1 251 144
3 1 144 74
3 1 74 176
3 1 176 159
3 1 159 790
3 1 790 346
3 1 346 715
3 1 715 11
3 1 11 842
3 1 842 50
3 1 50 143
3 1 143 6
3 1 6 547
3 1 547 8
3 2 3 218
3 2 218 512
3 2 512 119
3 2 119 475
3 2 475 201
3 2 201 82
3 2 82 88
3 2 88 720
3 2 720 978
3 2 978 271
3 2 271 12
3 2 12 855
3 2 855 106
3 2 106 570
3 2 570 128
3 2 128 164
3 2 164 9
3 2 9 51
3 2 51 345
3 2 345 61
3 2 61 108
3 3 4 944
3 3 944 456
3 3 456 404
3 3 404 253
3 3 253 557
3 3 557 7
3 3 7 406
3 3 406 956
3 3 956 267
3 3 267 959
3 3 959 45
3 3 45 131
3 3 131 914
3 3 914 24
3 3 24 613
3 3 613 587
3 3 587 276
3 3 276 858
3 3 858 125
3 3 125 881
3 3 881 526
3 3 526 12
3 3 12 86
3 3 86 473
3 3 473 82
3 3 82 681
3 3 681 119
3 3 119 646
3 3 646 218
3 4 472 174
3 4 174 736
3 4 736 247
3 4 247 367
3 4 367 848
3 4 848 100
3 4 100 220
3 4 220 331
3 4 331 209
3 4 209 954
3 4 954 446
3 4 446 294
3 4 294 368
3 4 368 373
3 4 373 200
3 4 200 259
3 4 259 840
3 4 840 14
3 4 14 316
3 4 316 405
3 4 405 524
3 4 524 301
3 4 301 382
3 4 382 68
3 4 68 141
3 4 141 843
3 4 843 423
3 4 423 299
3 4 299 19
3 4 19 232
3 4 232 365
3 4 365 261
3 4 261 277
3 4 277 934
3 4 934 40
3 4 40 297
3 4 297 873
3 4 873 192
3 4 192 216
3 4 216 76
3 4 76 676
3 4 676 10
3 4 10 492
3 4 492 854
3 4 854 897
3 4 897 147
3 4 147 194
3 4 194 974
3 4 974 47
3 4 47 173
3 4 173 678
3 4 678 7
3 4 7 253
3 4 253 642
3 4 642 596
3 4 596 976
3 4 976 404
3 4 404 456
3 4 456 944
3 5 11 42
3 5 42 25
3 5 723 282
3 5 282 23
3 5 23 437
3 5 437 66
3 5 66 856
3 5 856 355
3 5 355 664
3 5 664 268
3 5 268 604
3 5 604 132
3 5 132 813
3 5 813 493
3 5 493 35
3 5 35 502
3 5 502 846
3 5 846 965
3 5 965 239
3 5 239 491
3 5 491 264
3 5 264 750
3 5 750 9
3 5 9 567
3 5 567 180
3 5 180 687
3 5 687 16
3 5 16 138
3 5 138 751
3 5 751 120
3 5 120 211
3 5 211 12
3 5 12 160
3 5 160 32
3 5 32 701
3 5 701 286
3 5 286 15
3 5 15 520
3 5 520 990
3 5 990 98
3 5 98 847
3 5 847 669
3 5 669 658
3 5 658 546
3 5 546 104
3 5 104 379
3 5 379 564
3 5 564 543
3 5 543 586
3 5 586 951
3 5 951 10
3 5 10 41
3 5 41 434
3 5 434 197
3 5 197 244
3 5 244 157
3 5 157 433
3 5 433 342
3 5 342 688
3 5 688 134
3 5 134 248
3 5 248 257
3 5 257 909
3 5 909 13
3 5 13 90
3 5 90 381
3 5 381 58
3 5 58 516
3 5 516 11
3 6 11 630
3 6 630 463
3 6 463 569
3 6 569 71
3 6 71 118
3 6 118 96
3 6 96 13
3 6 13 427
3 6 427 227
3 6 227 56
3 6 56 281
3 6 281 668
3 6 668 139
3 6 139 101
3 6 101 774
3 6 774 95
3 6 95 263
3 6 263 109
3 6 109 8
3 6 8 547
3 6 143 50
3 6 50 175
3 6 175 150
3 6 150 215
3 6 215 778
3 6 778 11
3 7 678 173
3 7 173 509
3 7 509 47
3 7 47 648
3 7 648 149
3 7 149 273
3 7 273 67
3 7 67 10
3 7 10 931
3 7 931 312
3 7 312 412
3 7 412 21
3 7 21 249
3 7 249 970
3 7 970 501
3 7 501 12
3 7 12 30
3 7 30 77
3 7 77 214
3 7 214 901
3 7 901 43
3 7 43 279
3 7 279 24
3 7 24 783
3 7 783 549
3 7 549 133
3 7 133 64
3 7 64 505
3 7 505 326
3 7 326 45
3 7 45 499
3 7 499 267
3 7 267 406
3 7 557 253
3 8 109 95
3 8 95 362
3 8 362 460
3 8 460 656
3 8 656 56
3 8 56 417
3 8 417 148
3 8 148 946
3 8 946 91
3 8 91 439
3 8 439 13
3 8 13 888
3 8 888 523
3 8 523 370
3 8 370 571
3 8 571 113
3 8 113 496
3 8 496 115
3 8 115 987
3 8 987 39
3 9 750 264
3 9 264 239
3 9 239 35
3 9 35 72
3 9 72 124
3 9 124 597
3 9 597 694
3 9 694 396
3 9 396 252
3 9 252 23
3 9 23 623
3 9 623 698
3 9 698 146
3 9 146 310
3 9 310 536
3 9 536 754
3 9 416 70
3 9 70 103
3 9 103 51
3 9 164 128
3 9 128 145
3 9 145 561
3 9 561 553
3 9 553 106
3 9 106 627
3 9 627 481
3 9 481 850
3 9 850 12
3 9 12 583
3 9 583 767
3 9 767 746
3 9 746 69
3 9 69 26
3 9 26 826
3 9 826 357
3 9 357 696
3 9 696 748
3 9 748 122
3 9 122 657
3 9 657 401
3 9 401 556
3 9 556 16
3 9 16 745
3 9 745 180
3 9 180 924
3 9 924 567
3 10 951 586
3 10 586 543
3 10 543 379
3 10 379 744
3 10 744 104
3 10 104 369
3 10 369 322
3 10 322 582
3 10 582 98
3 10 98 191
3 10 191 15
3 10 15 616
3 10 616 188
3 10 188 962
3 10 962 397
3 10 397 364
3 10 364 466
3 10 466 349
3 10 349 906
3 10 906 226
3 10 226 12
3 10 12 831
3 10 831 912
3 10 912 37
3 10 37 83
3 10 83 204
3 10 204 48
3 10 48 21
3 10 21 312
3 10 312 931
3 10 67 387
3 10 387 792
3 10 792 274
3 10 274 256
3 10 256 892
3 10 892 358
3 10 358 800
3 10 800 503
3 10 503 47
3 10 47 147
3 10 147 492
3 10 676 76
3 10 76 510
3 10 510 40
3 10 40 202
3 10 202 600
3 10 600 112
3 10 112 757
3 10 757 52
3 10 52 315
3 10 315 922
3 10 922 306
3 10 306 732
3 10 732 19
3 10 19 105
3 10 105 222
3 10 222 272
3 10 272 14
3 10 14 318
3 10 318 544
3 10 544 296
3 10 296 841
3 10 841 518
3 10 518 237
3 10 237 953
3 10 953 737
3 10 737 79
3 10 79 102
3 10 102 519
3 10 519 136
3 10 136 461
3 10 461 336
3 10 336 17
3 10 17 671
3 10 671 49
3 10 49 940
3 10 940 968
3 10 968 18
3 10 18 647
3 10 647 341
3 10 341 712
3 10 712 53
3 10 53 579
3 10 44 29
3 10 29 22
3 10 22 555
3 10 555 483
3 10 483 27
3 10 27 392
3 10 392 182
3 10 182 386
3 10 386 353
3 10 353 85
3 10 85 372
3 10 372 325
3 10 325 590
3 10 590 13
3 10 13 196
3 10 196 241
3 10 241 93
3 10 93 184
3 10 184 603
3 10 603 94
3 10 94 607
3 10 607 632
3 10 632 41
3 11 516 621
3 11 621 833
3 11 833 58
3 11 58 728
3 11 728 302
3 11 302 278
3 11 278 295
3 11 295 451
3 11 451 329
3 11 329 761
3 11 761 498
3 11 498 573
3 11 573 13
3 11 13 71
3 11 71 857
3 11 857 862
3 11 862 463
3 11 463 630
3 11 778 215
3 11 215 255
3 11 255 150
3 11 150 50
3 11 50 842
3 11 715 346
3 11 346 159
3 11 159 863
3 11 863 74
3 11 74 517
3 11 517 161
3 11 161 152
3 11 152 165
3 11 165 548
3 11 548 284
3 11 284 818
3 11 818 436
3 11 436 258
3 11 258 928
3 11 928 660
3 11 660 849
3 11 849 25
3 11 25 575
3 11 575 42
3 12 501 249
3 12 249 290
3 12 290 21
3 12 21 527
3 12 527 507
3 12 507 37
3 12 37 831
3 12 226 385
3 12 385 188
3 12 188 980
3 12 980 15
3 12 15 415
3 12 415 32
3 12 32 620
3 12 620 160
3 12 211 120
3 12 120 425
3 12 425 16
3 12 16 292
3 12 292 697
3 12 697 31
3 12 31 442
3 12 442 845
3 12 845 824
3 12 824 769
3 12 769 156
3 12 156 782
3 12 782 26
3 12 26 69
3 12 69 583
3 12 850 481
3 12 481 730
3 12 730 584
3 12 584 665
3 12 665 106
3 12 106 855
3 12 271 88
3 12 88 947
3 12 947 486
3 12 486 82
3 12 82 86
3 12 526 125
3 12 125 447
3 12 447 350
3 12 350 445
3 12 445 615
3 12 615 126
3 12 126 991
3 12 991 24
3 12 24 634
3 12 634 30
3 13 573 729
3 13 729 498
3 13 498 329
3 13 329 295
3 13 295 278
3 13 278 530
3 13 530 713
3 13 713 58
3 13 58 969
3 13 969 90
3 13 909 257
3 13 257 629
3 13 629 248
3 13 248 710
3 13 710 134
3 13 134 554
3 13 554 866
3 13 866 410
3 13 410 458
3 13 458 41
3 13 41 235
3 13 235 724
3 13 724 413
3 13 413 333
3 13 333 935
3 13 935 153
3 13 153 651
3 13 651 403
3 13 403 93
3 13 93 733
3 13 733 196
3 13 590 325
3 13 325 611
3 13 611 799
3 13 799 85
3 13 85 229
3 13 229 114
3 13 114 187
3 13 187 910
3 13 910 27
3 13 27 142
3 13 142 468
3 13 468 135
3 13 135 531
3 13 531 513
3 13 513 22
3 13 22 705
3 13 705 659
3 13 659 110
3 13 110 33
3 13 33 63
3 13 63 323
3 13 323 950
3 13 950 650
3 13 650 300
3 13 300 320
3 13 320 28
3 13 28 178
3 13 178 97
3 13 97 870
3 13 870 127
3 13 127 84
3 13 84 223
3 13 408 958
3 13 958 151
3 13 151 123
3 13 123 787
3 13 787 217
3 13 217 977
3 13 977 55
3 13 55 233
3 13 233 313
3 13 313 62
3 13 62 283
3 13 283 495
3 13 495 46
3 13 46 39
3 13 39 177
3 13 177 168
3 13 168 113
3 13 113 370
3 13 370 610
3 13 610 529
3 13 529 523
3 13 523 888
3 13 439 680
3 13 680 91
3 13 91 56
3 13 56 957
3 13 957 227
3 13 227 427
3 13 96 504
3 13 504 984
3 13 984 158
3 13 158 628
3 13 628 71
3 14 835 743
3 14 743 988
3 14 988 20
3 14 20 57
3 14 57 719
3 14 719 305
3 14 305 17
3 14 17 321
3 14 321 640
3 14 640 639
3 14 639 212
3 14 212 915
3 14 915 231
3 14 231 383
3 14 383 79
3 14 79 633
3 14 633 429
3 14 429 237
3 14 237 296
3 14 296 734
3 14 734 537
3 14 537 624
3 14 624 318
3 14 272 222
3 14 222 105
3 14 105 19
3 14 19 87
3 14 87 450
3 14 450 68
3 14 68 352
3 14 352 301
3 14 301 316
3 14 840 259
3 14 259 672
3 14 672 943
3 14 943 200
3 14 200 100
3 14 100 195
3 14 195 868
3 15 286 361
3 15 361 32
3 15 32 834
3 15 834 966
3 15 966 670
3 15 670 869
3 15 869 415
3 15 980 188
3 15 188 616
3 15 191 644
3 15 644 207
3 15 207 98
3 15 98 520
3 16 687 180
3 16 180 745
3 16 556 401
3 16 401 122
3 16 122 861
3 16 861 933
3 16 933 26
3 16 26 366
3 16 366 59
3 16 59 31
3 16 31 292
3 16 425 541
3 16 541 120
3 16 120 371
3 16 371 138
3 17 679 38
3 17 38 489
3 17 489 839
3 17 839 550
3 17 550 18
3 17 18 552
3 17 552 162
3 17 162 75
3 17 75 269
3 17 269 265
3 17 265 865
3 17 865 289
3 17 289 506
3 17 506 895
3 17 895 884
3 17 884 773
3 17 773 49
3 17 49 671
3 17 336 136
3 17 136 102
3 17 102 652
3 17 652 243
3 17 243 79
3 17 79 699
3 17 699 212
3 17 212 576
3 17 576 321
3 17 305 443
3 17 443 431
3 17 431 57
3 17 57 704
3 17 704 952
3 17 952 20
3 17 20 328
3 18 497 877
3 18 877 53
3 18 53 674
3 18 674 341
3 18 341 647
3 18 968 940
3 18 940 49
3 18 49 430
3 18 430 78
3 18 78 395
3 18 395 254
3 18 254 775
3 18 775 130
3 18 130 262
3 18 262 784
3 18 784 885
3 18 885 508
3 18 508 593
3 18 593 75
3 18 75 816
3 18 816 162
3 18 162 552
3 18 550 814
3 18 814 489
3 18 489 38
3 19 299 141
3 19 141 825
3 19 825 347
3 19 347 167
3 19 167 755
3 19 755 68
3 19 68 99
3 19 99 221
3 19 221 314
3 19 314 87
3 19 732 306
3 19 306 391
3 19 391 400
3 19 400 52
3 19 52 40
3 19 40 359
3 19 359 232
3 20 967 428
3 20 428 340
3 20 340 337
3 20 337 328
3 20 952 704
3 20 704 57
3 20 988 743
3 20 743 893
3 20 893 937
3 21 412 312
3 21 48 242
3 21 242 37
3 21 37 507
3 21 507 527
3 21 290 249
3 22 260 250
3 22 250 224
3 22 224 829
3 22 829 303
3 22 303 859
3 22 859 34
3 22 34 60
3 22 60 54
3 22 54 653
3 22 653 210
3 22 210 691
3 22 691 28
3 22 28 418
3 22 418 879
3 22 879 351
3 22 351 449
3 22 449 33
3 22 33 926
3 22 926 111
3 22 111 110
3 22 110 913
3 22 913 809
3 22 809 721
3 22 721 659
3 22 659 705
3 22 513 135
3 22 135 27
3 22 27 781
3 22 781 483
3 22 483 555
3 22 29 375
3 22 375 599
3 22 599 830
3 22 830 185
3 22 185 198
3 22 198 36
3 22 36 878
3 22 878 457
3 22 457 137
3 22 137 949
3 22 949 170
3 22 170 116
3 22 116 163
3 22 163 788
3 23 332 853
3 23 853 146
3 23 146 649
3 23 649 623
3 23 252 124
3 23 124 155
3 23 155 335
3 23 335 72
3 23 72 683
3 23 683 107
3 23 107 240
3 23 240 474
3 23 474 354
3 23 354 35
3 23 35 193
3 23 193 129
3 23 129 894
3 23 894 66
3 23 66 689
3 23 689 437
3 23 282 592
3 24 914 131
3 24 131 45
3 24 45 64
3 24 64 890
3 24 890 464
3 24 464 133
3 24 133 717
3 24 717 549
3 24 549 783
3 24 279 43
3 24 43 236
3 24 236 65
3 24 65 179
3 24 179 356
3 24 356 891
3 24 891 30
3 24 30 634
3 24 991 126
3 24 126 125
3 24 125 276
3 24 276 587
3 24 587 613
3 25 42 575
3 25 849 660
3 25 660 258
3 25 258 165
3 25 165 152
3 25 152 307
3 25 307 327
3 25 327 74
3 25 74 144
3 25 144 251
3 26 782 156
3 26 156 31
3 26 31 59
3 26 59 366
3 26 933 861
3 26 861 122
3 26 122 494
3 26 494 357
3 26 357 826
3 27 483 786
3 27 786 781
3 27 135 338
3 27 338 142
3 27 910 187
3 27 187 287
3 27 287 114
3 27 114 140
3 27 140 435
3 27 435 285
3 27 285 455
3 27 455 643
3 27 643 85
3 27 85 438
3 27 438 876
3 27 876 182
3 27 182 900
3 27 900 392
3 28 823 89
3 28 89 626
3 28 626 84
3 28 84 936
3 28 936 727
3 28 727 97
3 28 97 199
3 28 199 637
3 28 637 178
3 28 320 452
3 28 452 300
3 28 300 63
3 28 63 73
3 28 73 33
3 28 33 598
3 28 598 351
3 28 351 418
3 28 691 210
3 28 210 225
3 28 225 864
3 28 864 932
3 28 932 54
3 28 54 80
3 28 80 81
3 28 81 34
3 28 34 759
3 28 759 92
3 28 92 707
3 28 707 213
3 28 213 770
3 29 807 205
3 29 205 532
3 29 532 36
3 29 36 753
3 29 753 568
3 29 568 189
3 29 189 185
3 29 185 785
3 29 785 797
3 29 797 923
3 29 923 375
3 30 891 356
3 30 356 989
3 30 989 179
3 30 179 65
3 30 65 208
3 30 208 480
3 30 480 43
3 30 43 411
3 30 411 77
3 31 697 292
3 31 156 589
3 31 589 442
3 32 160 620
3 32 415 963
3 32 963 670
3 32 670 834
3 32 361 798
3 32 798 286
3 32 286 701
3 33 110 111
3 33 111 926
3 33 449 351
3 33 351 772
3 33 772 598
3 33 73 414
3 33 414 749
3 33 749 63
3 34 558 454
3 34 454 808
3 34 808 92
3 34 92 759
3 34 81 635
3 34 635 80
3 34 80 682
3 34 682 121
3 34 121 54
3 34 54 424
3 34 424 60
3 34 859 303
3 34 303 224
3 34 224 407
3 35 493 132
3 35 132 819
3 35 819 66
3 35 66 565
3 35 565 545
3 35 545 171
3 35 171 129
3 35 129 193
3 35 354 240
3 35 240 459
3 35 459 107
3 35 107 154
3 35 154 72
3 35 239 709
3 35 709 874
3 35 874 502
3 36 426 116
3 36 116 330
3 36 330 137
3 36 137 457
3 36 457 878
3 36 198 185
3 36 185 919
3 36 919 190
3 36 190 246
3 36 246 189
3 36 189 568
3 36 568 776
3 36 776 753
3 36 532 205
3 37 912 831
3 37 242 48
3 37 48 852
3 37 852 514
3 37 514 779
3 37 779 83
3 39 987 115
3 39 115 113
3 39 113 172
3 39 172 477
3 39 477 238
3 39 238 560
3 39 560 168
3 39 168 308
3 39 308 867
3 39 867 177
3 39 46 889
3 39 889 293
3 39 293 186
3 39 186 540
3 39 540 794
3 40 934 277
3 40 277 261
3 40 261 638
3 40 638 232
3 40 232 402
3 40 402 359
3 40 52 595
3 40 595 572
3 40 572 703
3 40 703 112
3 40 112 202
3 40 510 76
3 40 76 740
3 40 740 288
3 40 288 304
3 40 304 192
3 40 192 297
3 41 632 899
3 41 899 607
3 41 607 94
3 41 94 291
3 41 291 275
3 41 275 618
3 41 618 432
3 41 432 771
3 41 771 183
3 41 183 93
3 41 93 938
3 41 938 153
3 41 153 235
3 41 458 975
3 41 975 487
3 41 487 410
3 41 410 563
3 41 563 760
3 41 760 421
3 41 421 478
3 41 478 134
3 41 134 872
3 41 872 574
3 41 574 203
3 41 203 606
3 41 606 181
3 41 181 157
3 41 157 601
3 41 601 197
3 41 197 434
3 43 901 214
3 43 214 77
3 43 77 411
3 43 480 208
3 43 208 234
3 43 234 65
3 43 65 917
3 43 917 236
3 45 959 267
3 45 267 499
3 45 326 64
3 46 186 551
3 46 551 374
3 46 374 293
3 46 293 889
3 46 495 283
3 46 283 62
3 46 62 686
3 46 686 793
3 46 793 482
3 46 482 55
3 47 974 194
3 47 194 982
3 47 982 147
3 47 503 358
3 47 358 795
3 47 795 256
3 47 256 471
3 47 471 67
3 47 67 612
3 47 612 206
3 47 206 230
3 47 230 245
3 47 245 817
3 47 817 149
3 47 149 648
3 47 509 173
3 48 204 83
3 48 83 514
3 48 514 852
3 49 773 506
3 49 506 871
3 49 871 289
3 49 289 265
3 49 265 742
3 49 742 75
3 49 75 363
3 49 363 78
3 49 78 654
3 49 654 430
3 50 150 812
3 50 812 228
3 50 228 175
3 51 348 791
3 51 791 61
3 51 61 964
3 51 964 747
3 51 747 918
3 51 918 345
3 51 103 70
3 51 70 384
3 51 384 117
3 51 117 398
3 52 757 796
3 52 796 112
3 52 112 572
3 52 572 595
3 52 400 391
3 52 391 306
3 52 306 343
3 52 343 315
3 53 712 341
3 53 341 674
3 53 877 497
3 54 60 424
3 54 121 716
3 54 716 490
3 54 490 80
3 54 932 864
3 54 864 225
3 54 225 380
3 54 380 339
3 54 339 210
3 54 210 653
3 55 482 62
3 55 62 233
3 55 977 217
3 55 217 123
3 55 123 921
3 55 921 539
3 56 227 957
3 56 91 675
3 56 675 148
3 56 148 417
3 56 656 804
3 56 804 460
3 56 460 362
3 56 362 706
3 56 706 95
3 56 95 101
3 56 101 522
3 56 522 389
3 56 389 986
3 56 986 324
3 56 324 462
3 56 462 139
3 56 139 281
3 57 431 444
3 57 444 305
3 57 305 898
3 57 898 719
3 58 381 485
3 58 485 645
3 58 645 90
3 58 90 969
3 58 713 530
3 58 530 278
3 58 278 302
3 58 302 728
3 58 833 621
3 58 621 516
3 61 578 108
3 61 345 747
3 61 747 964
3 61 791 348
3 62 313 233
3 62 482 686
3 63 749 414
3 63 414 73
3 63 300 323
3 64 133 467
3 64 467 464
3 64 464 890
3 64 326 505
3 65 236 917
3 65 234 208
3 66 437 689
3 66 894 129
3 66 129 171
3 66 171 545
3 66 545 655
3 66 655 565
3 66 819 132
3 66 132 280
3 66 280 268
3 66 268 355
3 66 355 856
3 67 273 149
3 67 149 206
3 67 206 612
3 67 471 256
3 67 256 718
3 67 718 274
3 67 274 387
3 68 382 301
3 68 301 352
3 68 450 880
3 68 880 87
3 68 87 319
3 68 319 409
3 68 409 99
3 68 755 167
3 68 167 141
3 69 746 583
3 70 117 384
3 71 569 463
3 71 463 857
3 71 628 158
3 71 158 96
3 71 96 118
3 72 154 903
3 72 903 985
3 72 985 107
3 72 107 683
3 72 335 844
3 72 844 789
3 72 789 155
3 72 155 219
3 72 219 124
3 74 327 752
3 74 752 602
3 74 602 307
3 74 307 802
3 74 802 152
3 74 152 161
3 74 161 517
3 74 863 159
3 74 159 393
3 74 393 176
3 75 162 816
3 75 593 508
3 75 508 262
3 75 262 130
3 75 130 78
3 75 78 363
3 75 742 265
3 75 265 902
3 75 902 269
3 76 216 192
3 76 192 311
3 76 311 288
3 76 288 740
3 78 430 654
3 78 130 360
3 78 360 317
3 78 317 886
3 78 886 254
3 78 254 395
3 79 737 945
3 79 945 237
3 79 237 429
3 79 429 738
3 79 738 633
3 79 383 231
3 79 231 212
3 79 212 763
3 79 763 699
3 79 243 559
3 79 559 102
3 80 490 121
3 80 121 682
3 80 635 81
3 82 201 394
3 82 394 119
3 82 119 681
3 82 473 86
3 82 486 542
3 82 542 88
3 83 779 514
3 84 836 780
3 84 780 223
3 84 127 832
3 84 832 166
3 84 166 97
3 84 97 727
3 84 727 936
3 84 626 972
3 84 972 89
3 84 89 479
3 84 479 488
3 85 353 182
3 85 182 438
3 85 643 455
3 85 455 285
3 85 285 469
3 85 469 140
3 85 140 851
3 85 851 114
3 85 114 229
3 85 799 611
3 85 611 325
3 85 325 422
3 85 422 372
3 87 314 221
3 87 221 377
3 87 377 534
3 87 534 99
3 87 99 319
3 87 880 450
3 88 542 486
3 88 486 947
3 88 271 720
3 89 972 626
3 90 645 485
3 90 485 381
3 91 946 148
3 91 148 675
3 91 680 439
3 92 213 801
3 92 801 707
3 92 808 454
3 92 454 562
3 93 241 441
3 93 441 196
3 93 196 733
3 93 403 153
3 93 153 938
3 93 183 470
3 93 470 588
3 93 588 94
3 93 94 521
3 93 521 184
3 94 603 184
3 94 184 521
3 94 588 470
3 94 470 183
3 94 183 275
3 94 275 725
3 94 725 291
3 95 774 101
3 95 706 362
3 95 109 263
3 96 158 504
3 97 178 440
3 97 440 692
3 97 692 199
3 97 166 127
3 97 127 916
3 97 916 870
3 98 990 520
3 98 207 896
3 98 896 191
3 98 582 875
3 98 875 322
3 98 322 580
3 98 580 104
3 98 104 942
3 98 942 546
3 98 546 693
3 98 693 658
3 98 658 669
3 98 669 847
3 99 409 883
3 99 883 319
3 99 534 377
3 99 377 221
3 100 960 195
3 100 200 399
3 100 399 609
3 100 609 608
3 100 608 209
3 100 209 220
3 100 848 367
3 100 367 622
3 100 622 247
3 100 247 538
3 100 538 605
3 100 605 174
3 100 174 344
3 100 344 388
3 100 388 577
3 101 139 324
3 101 324 389
3 101 389 522
3 102 559 756
3 102 756 243
3 102 243 652
3 102 136 519
3 104 546 942
3 104 580 322
3 104 322 369
3 104 744 379
3 106 665 584
3 106 584 661
3 106 661 481
3 106 481 627
3 106 553 145
3 106 145 948
3 106 948 169
3 106 169 811
3 106 811 511
3 106 511 535
3 106 535 128
3 106 128 570
3 107 985 903
3 107 903 154
3 107 459 240
3 110 659 721
3 110 721 809
3 110 809 913
3 112 600 202
3 112 703 572
3 112 796 757
3 113 571 370
3 113 168 172
3 113 115 496
3 114 851 140
3 114 287 187
3 116 170 298
3 116 298 920
3 116 920 673
3 116 673 515
3 116 515 270
3 116 270 500
3 116 500 137
3 116 137 619
3 116 619 484
3 116 484 330
3 119 512 218
3 119 218 646
3 119 394 201
3 119 201 475
3 120 751 764
3 120 764 138
3 120 138 983
3 120 983 371
3 120 541 425
3 121 490 716
3 122 748 696
3 122 696 907
3 122 907 357
3 122 357 494
3 122 401 657
3 123 979 539
3 123 539 921
3 123 217 787
3 124 219 955
3 124 955 155
3 124 252 695
3 124 695 396
3 124 396 597
3 125 858 276
3 125 126 882
3 125 882 726
3 125 726 350
3 125 350 447
3 125 526 881
3 126 615 731
3 126 731 445
3 126 445 350
3 126 350 726
3 126 726 882
3 127 870 916
3 127 166 832
3 128 535 511
3 128 511 666
3 128 666 169
3 128 169 533
3 128 533 145
3 130 775 837
3 130 837 254
3 130 254 317
3 130 317 390
3 130 390 376
3 130 376 360
3 132 604 268
3 132 268 465
3 132 465 280
3 132 493 813
3 133 549 717
3 133 464 467
3 134 688 342
3 134 342 157
3 134 157 266
3 134 266 181
3 134 181 334
3 134 334 203
3 134 203 591
3 134 591 768
3 134 768 574
3 134 574 872
3 134 478 421
3 134 421 410
3 134 410 554
3 134 710 860
3 134 860 741
3 134 741 248
3 135 468 142
3 135 142 338
3 135 513 810
3 135 810 690
3 135 690 708
3 135 708 531
3 136 336 461
3 137 330 484
3 137 484 619
3 137 500 270
3 137 270 711
3 137 711 453
3 137 453 170
3 137 170 949
3 138 371 983
3 138 764 751
3 139 668 281
3 139 462 324
3 140 469 735
3 140 735 594
3 140 594 285
3 140 285 581
3 140 581 739
3 140 739 435
3 141 167 961
3 141 961 905
3 141 905 347
3 141 347 825
3 141 299 820
3 141 820 423
3 141 423 843
3 145 533 169
3 145 169 948
3 145 553 561
3 146 698 623
3 146 623 649
3 146 853 332
3 146 332 525
3 146 525 766
3 147 897 854
3 147 854 492
3 147 982 194
3 149 817 245
3 149 245 230
3 149 230 309
3 149 309 777
3 149 777 206
3 150 175 228
3 150 228 812
3 150 255 215
3 151 958 408
3 152 802 307
3 153 935 333
3 153 333 235
3 153 403 908
3 153 908 651
3 155 955 219
3 155 789 335
3 156 769 442
3 156 442 589
3 157 244 641
3 157 641 197
3 157 197 601
3 157 181 266
3 157 342 528
3 157 528 433
3 158 984 504
3 159 176 393
3 159 346 790
3 165 258 838
3 165 838 927
3 165 927 284
3 165 284 548
3 167 347 905
3 167 905 961
3 168 177 308
3 168 560 238
3 168 238 172
3 169 666 511
3 169 511 811
3 170 453 270
3 170 270 298
3 172 238 477
3 174 420 344
3 174 605 538
3 174 538 247
3 174 247 736
3 177 867 308
3 178 637 199
3 178 199 476
3 178 476 440
3 179 989 356
3 180 567 924
3 181 606 203
3 181 203 334
3 182 392 900
3 182 876 438
3 182 353 386
3 183 771 432
3 183 432 275
3 185 830 599
3 185 599 375
3 185 375 785
3 185 189 190
3 185 190 919
3 186 293 419
3 186 419 374
3 186 374 758
3 186 758 828
3 186 828 805
3 186 805 551
3 188 385 226
3 188 226 667
3 188 667 349
3 188 349 939
3 188 939 364
3 188 364 397
3 188 397 962
3 189 246 585
3 189 585 614
3 189 614 190
3 190 614 585
3 190 585 246
3 191 896 207
3 191 207 684
3 191 684 644
3 192 873 297
3 192 304 288
3 192 288 378
3 192 378 311
3 196 441 448
3 196 448 241
3 197 641 827
3 197 827 244
3 199 692 440
3 199 440 476
3 200 373 368
3 200 368 294
3 200 294 209
3 200 209 636
3 200 636 399
3 200 943 672
3 200 672 259
3 203 574 591
3 206 777 309
3 206 309 230
3 207 644 714
3 207 714 684
3 209 331 220
3 209 608 399
3 209 399 636
3 209 294 446
3 209 446 954
3 210 339 225
3 212 639 321
3 212 321 722
3 212 722 576
3 212 699 763
3 212 231 915
3 213 707 803
3 213 803 801
3 224 303 829
3 225 339 566
3 225 566 380
3 226 906 349
3 226 349 667
3 232 359 402
3 232 638 261
3 232 261 365
3 235 333 413
3 235 413 724
3 237 518 296
3 237 945 737
3 237 737 953
3 239 965 846
3 239 846 502
3 239 502 709
3 239 264 663
3 239 663 491
3 240 354 474
3 241 448 441
3 243 756 559
3 244 827 641
3 247 622 367
3 248 741 710
3 248 629 762
3 248 762 257
3 249 501 970
3 252 396 695
3 253 404 702
3 253 702 596
3 253 596 642
3 254 886 904
3 254 904 317
3 254 837 775
3 256 274 718
3 256 795 358
3 256 358 892
3 257 762 629
3 258 436 284
3 258 284 838
3 258 660 928
3 262 508 992
3 262 992 784
3 264 491 663
3 265 269 902
3 265 289 865
3 267 956 406
3 268 664 355
3 268 280 465
3 270 515 911
3 270 911 941
3 270 941 298
3 270 453 711
3 271 978 720
3 274 792 387
3 275 291 725
3 275 432 618
3 282 723 887
3 284 927 838
3 284 436 818
3 285 435 581
3 285 594 981
3 285 981 469
3 286 798 361
3 288 311 378
3 289 871 506
3 293 374 419
3 295 329 451
3 296 544 318
3 296 318 677
3 296 677 631
3 296 631 537
3 296 537 734
3 296 518 841
3 298 941 911
3 298 911 515
3 298 515 673
3 298 673 920
3 299 423 820
3 300 650 765
3 300 765 323
3 300 452 320
3 301 524 405
3 301 405 316
3 305 719 898
3 305 444 431
3 305 431 443
3 306 922 930
3 306 930 315
3 306 315 343
3 307 602 821
3 307 821 327
3 310 662 625
3 310 625 806
3 310 806 536
3 315 930 922
3 317 360 376
3 317 376 390
3 317 904 886
3 318 624 537
3 318 537 631
3 318 631 677
3 319 883 409
3 321 576 722
3 321 639 640
3 322 875 582
3 323 765 650
3 323 650 950
3 324 986 389
3 325 372 422
3 327 821 602
3 327 602 752
3 329 498 761
3 335 789 844
3 339 380 566
3 342 433 528
3 344 700 388
3 344 420 815
3 345 918 747
3 349 466 364
3 349 364 939
3 351 879 418
3 351 598 772
3 357 907 696
3 358 503 800
3 370 523 529
3 370 529 610
3 374 551 758
3 375 923 797
3 375 797 785
3 379 543 617
3 379 617 564
3 388 685 577
3 396 694 925
3 396 925 597
3 399 608 609
3 403 651 908
3 404 976 596
3 404 596 702
3 410 866 554
3 410 421 563
3 410 487 458
3 415 869 973
3 415 973 670
3 415 670 963
3 421 760 563
3 429 633 738
3 435 739 581
3 442 769 824
3 442 824 845
3 445 731 615
3 454 558 929
3 458 487 975
3 460 804 656
3 463 862 857
3 469 981 594
3 469 594 735
3 481 661 584
3 481 584 730
3 482 793 686
3 483 781 786
3 489 814 550
3 489 550 839
3 498 729 573
3 502 874 709
3 506 773 884
3 506 884 895
3 508 885 784
3 508 784 992
3 513 531 690
3 513 690 810
3 531 708 690
3 536 806 625
3 540 822 794
3 543 564 617
3 545 565 655
3 546 658 693
3 551 805 758
3 568 753 776
3 574 768 591
3 583 746 767
3 597 925 694
3 607 899 632
3 644 684 971
3 644 971 714
3 670 966 834
3 670 973 869
3 684 714 971
3 707 801 803
3 710 741 860
3 758 805 828
