ply
format ascii 1.0
comment made by startin
element vertex 993
property float x
property float y
property float z
element face 1980
property list uchar int vertex_indices
end_header
-7.993 -6.657 60
262.22900000000004 -6.657 100
262.22900000000004 263.97 15
-7.993 263.97 30
6.64 244.192 72.979
212.232 133.542 64.5
227.207 7.453 116.287
117.585 215.27 105.561
149.559 3.685 97.394
240.213 228.525 38.083
131.038 169.205 103.889
202.289 55.814 127.099
184.237 240.275 48.214
171.363 50.452 130
27.909 146.156 119.806
177.006 189.873 59.114
215.242 165.741 62.273
35.908 108.466 114.31
25.195 43.274 75.678
76.107 159.876 132.488
19.106 82.876 97.083
127.426 207.798 105.217
101.436 97.78 144.495
245.89 51.73 105.909
96.689 237.571 86.447
214.717 123.195 65.125
208.749 221.212 41.621
117.382 106.341 150
93.159 46.276 113
127.656 161.698 111.111
177.238 238.038 54.828
209.407 188.85 60.222
199.745 169.569 74.123
128.761 62.887 131.667
35.279 26.886 77.812
232.653 157.633 47.678
75.291 92.863 128.22
166.976 225.058 69.375
5.51 24.634 70
115.643 3.824 85.204
61.522 195.894 103.704
170.954 150.818 97.051
210.984 116.102 72.833
124.683 223.902 100.34
114.381 146.063 133.162
48.144 247.839 60
129.673 25.091 106.818
53.398 225.196 73.75
131.057 206.655 103.214
123.287 162.386 115.185
237.042 19.002 115.797
245.817 233.959 36.196
69.372 177.946 120.7
18.58 28.161 70
59.151 49.678 98.333
91.577 17.489 91.125
178.808 37.443 129.916
20.408 91.372 102.333
196.429 84.879 111.447
209.226 203.236 48.816
91.327 86.837 134.545
249.136 199.465 40.627
133.043 32.774 113.095
143.992 55.26 129.727
59.53 243.504 60
139.51 233.532 88.472
233.307 110.925 65.556
122.897 195.359 110.952
30.725 191.053 92.692
209.697 227.374 40
246.489 163.648 40
182.2 51.914 130
234.656 173.706 45.534
105.971 49.45 119.286
250.113 21.497 110
42.035 98.43 113.364
102.321 183.649 122.075
147.148 229.438 84.487
108.308 147.973 136.717
56.906 127.333 128.756
86.016 46.024 109.889
85.772 43.993 107.444
166.964 246.54 61.831
133.531 175.712 101.667
66.425 20.513 83.068
133.204 130.823 133.833
93.974 252.107 73.846
40.985 150 120
210.465 252.409 37.003
46.073 18.519 77.824
190.995 83.933 115.014
172.674 44.542 130
44.766 29.11 80.156
153.519 112.76 126.296
138.238 159.849 101.841
182.69 7.898 116.078
193.321 33.648 129.741
95.267 37.853 107.889
181.232 172.275 76.111
50.439 174.376 113.75
10.109 80.97 94.333
183.747 12.89 119.385
86.085 142.291 140
243.606 213.02 41.7
174.11 159.496 88.286
88.22 161.902 135.536
217.835 248.898 36.202
239.861 113.522 59.643
250.718 204.365 40
182.6 6.259 115.288
141.04 59.636 131.522
131.431 64.356 133.261
96.223 178.687 125.667
144.311 16.326 102.083
157.259 69.789 139.8
125.286 4.498 88.061
15.56 19.214 70
251.011 132.223 45.915
210.392 22.18 124.326
150.532 249.451 70.385
206.997 165.207 70.333
54.329 44.521 93.052
219.627 202.418 48.807
73.143 17.928 83.049
237.413 183.996 45.167
93.54 249.947 76.154
96.567 239.368 85.333
106.102 32.994 108.718
251.229 253.602 30.146
236.992 115.908 59.231
69.208 116.26 134.562
32.642 252.524 65.173
225.99 142.232 54.231
79.97 234.355 74.432
184.177 95.423 112.143
111.911 102.691 150
64.948 127.797 132.782
70.715 79.539 119.103
211.824 155.06 65.909
210.617 11.046 120.87
152.211 80.446 140
16.793 225.881 70.714
139.832 79.45 143.547
236.14 17.452 116.142
242.978 42.396 109.545
242.603 243.571 33.608
247.198 109.123 59.528
99.861 191.248 117.353
162.485 24.841 117.766
112.293 214.652 106.119
225.063 27.684 120.995
110.002 30.507 108.889
224.641 49.261 120.932
167.34 127.729 110.417
233.874 161.984 46.324
239.068 147.444 44.216
203.679 220.952 42.707
197.818 130.253 79.667
185.308 46.586 130
237.581 27.584 114.859
208.768 145.116 68.636
213.484 49.528 125.052
37.633 93.933 108.818
36.277 38.138 78.007
247.066 243.512 33.167
220.704 56.338 121.54
75.309 25.699 90.571
25.976 207.85 79.643
156.931 34.654 120.861
238.595 247.063 32.957
86.83 84.608 131.161
234.802 134.796 49.134
146.756 21.558 107.361
22.889 238.987 65.568
2.956 151.812 110
227.306 11.143 118.117
248.951 12.543 110.754
143.265 26.618 110.513
162.545 49.502 130
131.967 235.14 91.659
224.107 179.148 54.618
194.938 128.171 83.704
127.264 147.375 121.552
156.258 125.04 119.5
134.494 163.095 102.879
97.775 106.295 146.182
52.016 4.656 70
139.273 85.575 145.505
169.453 203.749 65.625
103.511 122.863 148.415
96.527 107.914 145.892
135.863 170.972 99.5
63.917 206.075 92.8
235.01 134.989 48.688
80.596 202.522 105.667
11.662 81.911 95
154.038 101.574 132.8
176.328 147.495 95.233
89.329 97.9 138.3
103.322 45.337 115.98
21.428 129.765 114.963
188.01 251.554 44.335
90.839 181.723 123.023
186.097 131.536 92.188
132.046 183.943 102.778
64.864 81.85 115.732
116.215 205.841 110.304
177.906 175.286 72.778
145.38 232.429 84.487
10.054 146.581 111.687
95.218 87.911 136.818
206.236 163.561 70.357
46.1 127.387 122.429
17.479 10.604 70
127.07 222.447 100.067
225.446 23.309 120.871
66.552 204.585 96.4
98.905 22.933 98.243
158.853 253.811 63.125
236.108 175.466 44.328
9.574 126.428 112.435
65.572 164.457 125.726
70.902 157.113 130.351
94.62 26.441 99.429
27.141 25.72 73.2
89.307 54.814 116.631
174.406 225.162 60.357
209.218 19.006 123.645
227.332 18.955 119.78
160.686 69.592 138.88
77.519 218.186 86.25
43.1 132.009 120
65.423 174.843 120.849
138.836 36.223 116.429
137.29 231.715 90.934
170.463 146.562 99.884
122.879 233.017 96.176
67.656 143.896 131.132
149.352 26.097 112.556
237.257 203.479 45.341
239.416 112.919 60.5
137.21 153.682 108.206
147.928 216.414 89.091
51.786 122.246 125.708
195.843 139.385 81.5
65.266 221.793 77.5
84.03 101.562 137.13
7.148 150.484 110
200.702 117.75 80.556
142.762 219.744 92.308
52.508 50.712 92.727
247.343 31.577 107.257
244.021 88.251 84.167
95.999 221.961 96.25
58.856 90.86 117.976
222.038 30.513 121.931
100.513 201.406 111.786
202.277 115.883 80
213.354 93.409 96.071
19.096 166.175 109.643
19.378 19.397 70
54.057 191.988 103.182
57.921 101.167 123.488
197.89 6.754 115.797
236.355 212.589 43.584
66.453 118.487 133.669
194.984 126.338 84.375
44.331 247.288 60
222.922 131.709 56.591
41.473 100.486 114.091
74.319 78.296 121.354
192.266 242.87 42.416
53.316 152.231 123.978
120.659 202.501 110.345
114.931 189.951 116.417
147.48 149.749 106.818
92.69 247.432 76.923
54.786 194.617 100.455
193.197 69.76 123.501
116.58 223.61 101.711
230.909 119.753 58.462
184.948 33.378 129.19
238.9 68.652 107.162
133.611 31.12 112.381
206.539 62.32 123.608
131.276 113.52 148.385
203.026 157.562 72.821
138.648 86.808 146.212
68.628 197.012 105.185
72.186 123.35 136.886
144.632 217.68 91.282
162.66 152.972 98
190.527 226.153 46.57
104.053 6.801 85.762
12.736 168.931 109.286
192.783 67.459 125.002
63.041 145.66 128.869
59.695 203.11 94.286
44.629 46.697 84.091
22.72 222.517 70
110.804 48.581 120.4
19.735 201.692 85.405
194.473 75.561 119.605
37.342 31.067 79
67.745 197.225 104.697
29.811 118.923 114.837
90.68 166.339 132.761
227.672 49.663 119.595
150.958 31.138 116.333
100.607 211.852 105.238
248.865 96.605 73.333
90.155 188.704 118.298
128.431 196.84 106.25
154.031 42.512 124.712
44.039 151.787 120.111
80.597 176.159 124.884
24.625 166.627 110
74.147 116.55 136.928
76.824 154.772 134.015
38.902 163.981 115.842
134.267 49.19 124.6
34.449 119.996 116.506
164.176 166.708 84.286
145.459 54.993 129.787
196.157 12.313 121.185
149.332 111.682 131.364
59.456 243.194 60
224.894 92.302 91.731
27.242 89.975 102.778
190.085 63.033 128.003
61.519 75.057 110.128
9.166 153.867 110.582
250.75 61.689 102
168.54 109.264 116.471
185.866 113.723 100.741
242.529 93.009 78.889
96.664 147.293 140
24.371 82.319 98.25
117.388 100.414 150
87.16 78.353 128.889
15.137 60.581 84.773
85.345 113.634 141.774
194.181 117.398 87.5
81.076 172.097 127.907
5.124 127.011 111
252.229 231.629 35.942
218.199 40.172 123.624
39.484 196.117 91.081
250.738 164.14 40
167.786 214.407 69.286
128.713 245.357 88.171
109.813 61.319 127.872
27.696 169.676 108.571
131.892 141.704 123.387
237.243 123.863 52.821
226.244 122.939 58.724
142.687 237.641 83.571
219.848 221.408 41.763
88.048 200.544 110.213
71.155 171.332 125
85.676 127.642 142.408
183.957 182.789 65.006
175.72 9.657 115.903
92.746 138.013 141.023
143.236 182.865 90.556
18.993 229.962 69.141
213.151 180.692 62.351
8.436 135.702 111.716
11.887 185.336 97.909
157.65 164.898 88.857
153.89 26.355 114.333
213.34 164.207 64.091
134.383 142.126 120.484
19.244 144.466 116.164
94.485 7.365 84.324
108.327 120.547 149.643
74.543 119.255 137.421
61.624 162.446 124.643
74.743 198.444 107.407
180.003 153.853 89.722
69.521 58.406 108.251
207.703 121.367 71.667
14 226.014 71.758
45.684 134.192 120.741
247.291 191.668 41.178
173.568 219.836 61.875
130.684 143.51 122.097
123.134 193.259 110.833
4.594 94.085 101.775
185.453 20.548 123.382
73.342 117.011 136.586
82.826 168.338 130.69
124.611 137.612 131.667
239.907 26.08 113.661
168.624 248.651 59.653
98.063 136.05 142.108
242.845 130.704 47.973
159.684 195.579 75.5
251.835 122.982 49.9
14.573 126.226 113.031
74.089 168.449 128
230.635 208.002 45.623
68.324 175.771 121.5
157.113 115.343 120.758
53.737 237.61 63.714
19.812 188.516 94.4
113.025 217.127 104.664
14.378 11.969 70
36.279 7.341 70
34.463 181.87 101.111
174.673 73.197 132.105
141.043 228.167 89.615
126.637 200.179 107.405
168.877 102.85 120
132.153 59.084 130.217
185.541 212.678 50.455
243.959 189.731 42.698
168.47 28.617 122.326
96.404 66.411 126.635
74.25 5.945 74.839
2.396 141.075 110
180.197 89.306 118.553
146.53 115.121 133.269
14.964 232.086 69.93
72.163 65.191 113.214
196.286 210.558 47.838
19.434 25.172 70
215.238 15.385 121.616
10.191 47.908 77.055
64.643 143.271 129.55
72.849 101.402 131.271
28.079 101.873 109.127
155.619 131.902 118.068
203.758 131.281 73.5
181.7 146.145 92
127.67 102.923 150
211.815 87.034 103.214
218.849 118.024 66.021
127.003 127.355 139.833
155.894 15.567 108.401
107.719 40.221 114.444
153.047 109.439 128.333
199.6 210.459 46.856
31.517 113.834 114.688
25.378 105.882 110.066
122.818 242.456 91.842
9.66 205.16 86.04
148.469 243.79 75.333
146.667 124.933 128.788
112.013 76.725 137.177
30.41 158.076 116
195.373 62.229 126.462
122.266 48.41 122.642
83.488 82.983 128.646
24.315 16.927 70
130.68 119.941 145.103
37.593 241.075 62.29
90.431 91.737 136.08
172.49 77.4 131.577
235.34 141.184 47.056
166.987 10.491 112.627
102.318 151.187 138.95
183.07 31.749 128.131
204.628 35.992 128.243
76.93 239.293 68.256
225.878 129.417 55.031
155.087 198.651 79.677
66.635 241.618 60
135.873 82.715 144.737
136.17 117.898 142.263
153.536 119.143 123.5
102.014 202.717 111.525
2.655 155.364 110
108.131 252.087 82
243.439 72.263 101.757
164.417 251.125 60.119
121.221 42.819 118.889
131.717 14.424 96.66
175.615 121.316 105.455
22.705 6.036 70
153.65 233.305 77.821
222.011 234.746 38.236
100.717 19.449 96.562
117.515 116.841 150
44.878 53.443 85.714
197.342 95.372 101.667
175.768 244.455 55.5
173.759 79.563 130.118
20.25 5.002 70
9.667 35.283 70.305
63.959 44.988 97.824
216.486 145.578 61.364
107.318 183.592 121.607
221.52 142.927 57.206
216.69 210.989 45.877
165.776 47.47 130
143.826 5.01 93.157
7.884 15.944 70
183.526 56.88 130
56.701 243.714 60
47.529 52.944 88.5
130.632 219.465 100.214
219.789 146.888 58.846
65.948 216.246 82.759
186.828 40.837 130
64.076 241.086 60
51.947 115.35 124.776
154.901 221.136 81.364
45.347 98.183 115.1
76.852 222.02 81.25
90.981 185.687 120.233
236.939 250.781 32.673
160.42 252.912 62.353
111.629 95.307 147.5
139.151 195.396 96.5
72.041 76.003 119.103
208.072 120.546 71.364
221.541 42.48 122.346
83.123 152.004 137.791
93.793 146.77 140
186.557 169.085 78.75
151.258 119.519 125.5
182.913 26.908 125.519
154.139 16.062 108.11
11.184 229.236 72.213
251.317 59.443 100.97
112.492 248.768 87.143
154.622 222.756 81.364
199.097 128.926 78.333
160.316 30.267 120.094
193.512 72.837 121.983
141.182 75.016 141.667
87.654 110.533 141.797
243.291 247.911 32.323
47.545 156.037 121.059
239.301 251.783 31.977
247.509 134.868 45.488
53.786 148.426 124.271
8.164 121.629 110.861
39.304 5.545 70
51.345 4.086 70
204.541 186.039 63.075
172.533 246.61 57.125
171.226 153.719 94.231
91.299 156.323 138.615
234.249 126.078 52.024
190.565 150.04 83.75
198.048 3.505 110.769
208.222 57.588 124.702
97.799 227.727 93.75
27.187 55.51 82.143
87.748 13.791 86.22
29.413 66.156 90.385
238.419 238.426 35.45
177.633 76.205 128.667
120.47 137.425 134.459
224.948 191.838 52.433
41.73 244.233 60.333
30.896 23.231 74.695
57.067 126.416 129.566
140.734 21.171 105.152
239.535 235.714 36.191
37.143 24.558 78.564
173.597 99.012 118.171
198.231 141.455 78.182
233.367 131.897 50
80.977 61.709 116.111
237.84 220.785 40.787
81.318 99.563 134.722
198.72 39.042 130
244.483 252.834 30.951
150.065 9.258 100.972
77.878 179.634 122.093
197.487 55.57 128.734
174.429 145.52 97.558
206.371 79.361 112.266
37.086 113.78 116.615
5.384 62.168 84.474
250.023 192.897 40
71.604 94.607 126.915
179.287 171.288 77.222
131.892 102.744 150
153.878 169.76 87
195.066 237.078 41.369
203.99 244.347 39.318
91.031 107.109 143.017
181.343 148.236 91.279
81.248 248.002 66.379
145.787 138.407 119.286
202.067 208.255 46.731
152.252 106.467 131.818
182.784 134.061 95
249.966 34.944 104.138
43.015 97.239 113.5
143.697 96.652 145.013
69.682 179.454 119.457
74.564 228.661 74.659
239.264 179.631 42.91
106.771 55.133 123.404
102.145 109.448 149.988
106.89 176.482 125.492
183.61 141.644 91.714
232.988 62.366 113.675
131.946 167.868 104.444
222.052 134.31 56.071
6.786 115.84 108.734
179.937 139.46 95.714
145.329 160.061 97.564
11.142 134.456 113.239
11.808 103.482 105.833
156.529 27.963 116.333
152.699 100.773 135.6
113.228 205.033 110.664
66.039 248.577 60
99.322 115.741 148.727
107.789 240.464 90.802
166.157 200.48 69.286
187.891 147.352 86.667
152.431 145.568 109.259
33.409 39.43 76.789
188.792 220.728 48.345
204.329 108.667 84.394
8.618 119.448 110.209
244.685 90.904 81.667
55.194 149.344 125.074
251.877 84.331 85
73.504 32.747 94.535
223.48 235.908 37.868
171.707 50.488 130
173.919 56.142 130
206.789 35.607 127.643
63.112 148.559 128.608
138.198 164.632 98.953
58.332 139.214 126.964
169.36 238.936 62.903
62.273 36.242 92.717
12.738 140.387 113.179
135.068 47.638 123.438
57.631 187.016 108.636
40.093 126.818 119.79
34.423 129.488 118.611
195.755 133.587 81.852
37.293 236.776 65.223
128.868 123.544 143.028
168.908 182.768 69.342
194.512 86.19 110.343
148.222 252.764 70
84.303 113.296 141.29
78.394 220.939 85
246.081 87.142 84.583
133.612 50.684 125
166.121 100.456 123.077
48.003 117.743 123.25
71.807 63.491 111.548
110.783 147.504 135.312
233.703 122.753 55.357
161.271 16.374 112.843
232.381 212.001 44.046
186.396 163.384 82.806
144.828 65.21 136.087
211.467 99.887 90.357
212.417 247.023 37.227
249.902 89.787 80.833
236.35 204.99 45.662
217.061 131.939 60
204.827 244.878 39.153
238.441 249.252 32.549
171.553 219.919 64.375
218.701 11.754 120.033
209.725 136.537 67.5
186.707 195.701 52.542
43.861 113.399 119.31
21.243 146.65 116.94
44.686 48.052 84.688
57.601 81.083 111.341
172.058 37.218 128.357
110.187 181.471 121.721
64.293 148.698 129.021
73.959 226.391 75.735
13.48 46.622 77.021
167.69 37.925 126.528
115.272 251.913 82.667
65.496 40.095 96.63
236.496 153.049 45
150.042 173.45 86.556
2.007 71.974 89.649
125.233 28.762 109.545
215.129 159.138 62.273
187.802 102.349 104.697
235.779 85.808 92.241
125.154 89.797 147.451
95.885 80.505 133.333
102.602 40.818 112.647
182.138 170.494 78.333
240.796 200.77 44.377
242.144 132.811 47.162
227.311 213.776 44.339
201.851 203.986 48.654
245.261 97.117 73.333
46.172 118.647 122.167
3.758 107.485 105.974
204.686 154.852 72.083
65.633 232.588 66.818
66.026 192.437 108.889
21.26 90.877 102.045
106.377 94.118 145.093
178.535 19.135 121.412
66.546 34.537 93.152
116.536 98.307 150
229.958 164.863 49.583
175.938 63.693 131.135
77.149 81.153 124.479
96.892 127.25 145.981
181.138 61.624 130
158.297 174.843 80.875
231.315 25.604 118.185
59.162 46.388 97.298
90.864 234.156 84.286
110.496 194.509 115.975
26.462 119.637 114.3
216.263 253.548 35.882
140.152 67.437 136.757
37.157 114.8 116.776
235.057 75.111 103
170.073 97.149 121.618
151.501 152.884 101.852
119.986 244.797 90.789
93.648 44.172 111.667
197.774 71.11 121.228
183.986 53.968 130
213.631 238.567 38.898
112.812 241.2 91.943
113.724 166.43 123.939
155.567 98.689 133.654
58.736 146.201 126.606
145.832 94.781 144.216
5.959 157.1 110
79.708 143.699 137.821
62.398 139.383 129.107
143.352 88.744 144.798
82.442 190.258 115.682
195.106 109.773 91
69.297 120.583 135.344
21.56 116.192 112.15
170.876 159.916 89.375
230.25 202.241 47.599
221.753 228.895 39.624
249.897 217.923 40
228.449 214.867 43.879
135.589 58.882 130.216
233.979 207.262 45.604
211.671 144.046 65.909
228.792 78.098 103.906
111.618 140.544 139.324
248.535 134.826 45.359
62.316 171.501 121.316
62.614 129.251 131.639
129.599 169.592 106.111
87.356 9.76 83.293
51.398 31.567 85.089
174.726 103.622 115.488
191.69 59.713 129.535
195.71 105.063 94.821
54.029 126.7 127.669
210.418 151.458 66.818
137.16 53.064 127.188
251.511 67.005 99.771
197.607 236.591 40.3
176.708 141.792 97.714
196.551 221.884 45
52.376 25.122 82.767
156.934 128.626 118.75
110.634 60.616 127.447
95.102 144.343 140
219.266 8.322 118.399
53.299 88.419 114.296
88.692 109.684 141.953
114.019 208.759 109.156
224.967 20.448 120.521
143.265 194.496 92.069
78.648 22.525 89.146
104.253 99.49 146.955
191.544 234.101 44.425
101.64 226.704 96.064
43.219 78.6 102.386
110.887 129.456 144.783
114.467 111.65 150
81.924 20.422 89.146
26.628 26.982 72.4
237.761 154.471 44.146
228.966 32.13 119.688
248.828 201.453 40.842
122.396 180.527 113.056
107.711 21.116 100.556
66.135 3.343 70.25
70.363 214.897 86.957
120.642 171.225 115.667
114.221 134.568 140.673
189.82 175.141 72.913
155.13 93.37 136.724
82.159 204.705 104.333
45.527 26.479 80
229.385 44.732 118.444
43.123 23.707 80
171.281 27.892 122.797
77.934 10.828 79.886
250.583 96.559 72.755
43.709 56.287 86.28
40.939 27.812 80
130.706 73.282 138.98
121.271 92.565 148.431
233.612 250.043 33.166
227.017 21.3 120.013
216.871 136.501 60.5
24.818 49.724 78.795
2.424 130.963 110
35.51 82.896 102.212
73.814 221.303 80.435
209.44 78.757 112.703
231.499 130.05 51.232
16.767 228.507 70
226.546 85.724 98.269
53.795 3.462 70
46.527 21.701 79.689
196.571 218.856 45.568
58.397 179.28 114.674
215.541 222.471 41.136
181.461 144.225 92.571
78.425 8.919 78.977
73.315 70.332 116.471
99.607 102.641 145.714
155.849 203.315 80.556
87.386 27.523 97.375
201.827 88.906 105.286
188.7 182.295 65.625
23.674 126.854 114.81
77.478 22.139 88.659
59.984 95.415 121.3
209.506 65.118 121.709
29.843 75.795 96.275
16.276 196.281 90.2
85.684 153.386 138.373
241.906 14.106 113.847
8.775 240.512 72.045
236.838 156.212 44.583
195.122 221.029 45.476
222.298 156.301 56.111
189.055 162.475 81.828
8.846 135.733 111.716
210.708 100.121 89.63
229.335 231.646 38.124
144.285 101.995 142.625
139.395 196.063 96.5
249.43 76.778 94.865
45.182 221.435 75.909
207.872 246.642 38.253
224.129 122.724 59.235
195.958 52.463 130
60.617 253.97 71.25
39.264 31.62 80
187.055 99.074 106.667
216.299 179.895 60.901
198.735 47.321 130
222.256 41.466 122.07
83.343 49.821 110.812
60.8 116.774 130.611
173.314 58.634 130
144.011 26.3 110.769
8.039 61.664 83.947
181.31 197.77 54.036
141.297 45.229 123.191
77.279 130.006 139.112
179.336 118.6 103.75
15.889 238.017 68.361
230.036 160.322 48.775
160.036 168.494 84.189
120.348 112.916 150
17.587 30.281 70
89.401 93.754 136.4
109.176 61.687 127.872
30.998 174.183 105.385
109.067 249.146 85.429
114.677 243.585 91.207
36.542 180.011 102.692
85.374 138.034 140.779
42.983 90.079 109.519
94.778 132.987 143.721
245.362 45.086 106.609
164.626 36.049 124.969
122.336 16.795 98.333
75.693 240.309 66.628
146.733 237.804 80.667
91.902 200.656 110.8
14.646 75.11 91.667
240.359 85.441 89.583
77.363 133.11 138.745
177.764 173.676 75
46.838 221.231 76.136
25.19 105.735 110.066
140.036 163.471 98.188
121.053 121.826 147.075
124.137 221.104 101.248
57.431 111.726 127.5
234.368 161.343 45.507
77.261 113.255 137.5
29.324 208.392 79.642
149.933 192.811 85.5
225.132 215.011 43.87
160.331 116.177 118.191
198.882 108.383 89.167
137.632 86.914 146.616
70.471 74.315 116.538
155.614 203.088 80.556
120.871 81.209 141.765
49.095 248.979 60
30.071 144.073 120
108.232 38.708 113.333
126.261 225.285 99.203
250.402 225.643 37.814
86.316 99.701 137.3
40.284 43.526 80.455
67.466 14.665 78.75
116.411 168.237 120.606
109.378 123.014 147.788
235.961 215.371 42.697
240.574 186.376 43.824
129.861 64.652 133
217.487 58.432 121.944
211.06 90.664 100
10.028 7.17 70
89.113 171.83 129.767
127.265 182.143 108.333
68.102 49.118 103.158
213.125 187.185 59.576
30.658 220.312 71.22
168.179 113.512 114.118
93.004 46.088 113
8.867 50.569 78.246
167.372 129.634 110.25
167.898 213.388 69.048
102.247 135.717 142.686
63.751 67.085 107.879
175.899 158.567 88.857
23.561 136.682 117.131
19.821 245.922 64.744
61.421 130.896 130.984
164.163 29.302 121.364
187.831 243.673 45.804
237.473 244.792 33.733
86.262 88.158 132.627
164.058 50.839 130
179.337 148.72 92.674
25.993 93.38 104.386
91.601 149.633 140
8.842 181.407 101.354
238.298 159.079 42.5
63.248 238.139 61.364
184.448 36.365 130
106.533 29.638 106.548
32.241 252.276 65.173
10.091 77.584 92.333
20.789 218.171 72.695
140.896 178.264 93.889
188.795 199.638 50
247.726 226.197 37.89
230.634 183.422 50.378
186.842 190.355 56.942
8.605 43.5 74.561
123.777 160.608 115.926
190.045 80.816 117.578
126.282 217.222 102.487
163.567 179.742 74.625
64.57 22.425 84
184.398 202.828 50.455
52.819 223.308 75.417
172.487 95.137 121.429
40.36 239.432 63.487
104.576 23.386 101.31
218.044 252.33 35.535
41.881 8.11 72.353
175.991 203.852 58.636
136.134 117.157 142.263
76.116 207.882 99.038
211.767 156.208 65.909
183.971 43.727 130
237.541 135.537 47.599
190.057 18.699 123.099
123.058 4.182 87.653
21.669 111.673 110.806
165.648 237.802 67.097
194.494 158.001 79.524
107.344 238.408 91.872
44.547 88.099 109.744
3 0 1 39
3 0 39 794
3 0 794 822
3 0 822 539
3 0 539 488
3 0 488 929
3 0 929 497
3 0 497 38
3 0 38 685
3 0 685 815
3 0 815 3
3 1 2 398
3 1 398 625
3 1 625 766
3 1 766 525
3 1 525 592
3 1 592 74
3 1 74 176
3 1 176 6
3 1 6 547
3 1 547 8
3 1 8 39
3 2 3 218
3 2 218 720
3 2 720 535
3 2 535 570
3 2 570 128
3 2 128 345
3 2 345 108
3 2 108 348
3 2 348 398
3 3 815 420
3 3 420 472
3 3 472 446
3 3 446 4
3 3 4 944
3 3 944 959
3 3 959 131
3 3 131 858
3 3 858 473
3 3 473 218
3 4 446 524
3 4 524 843
3 4 843 944
3 5 25 664
3 5 664 813
3 5 813 669
3 5 669 433
3 5 433 381
3 5 381 25
3 6 176 842
3 6 842 175
3 6 175 774
3 6 774 547
3 7 21 970
3 7 970 901
3 7 901 279
3 7 279 406
3 7 406 149
3 7 149 777
3 7 777 206
3 7 206 21
3 8 547 109
3 8 109 460
3 8 460 571
3 8 571 496
3 8 496 115
3 8 115 987
3 8 987 39
3 9 567 964
3 9 964 51
3 9 51 561
3 9 561 850
3 9 850 567
3 10 83 757
3 10 757 603
3 10 603 191
3 10 191 83
3 11 161 548
3 11 548 284
3 11 284 451
3 11 451 573
3 11 573 857
3 11 857 862
3 11 862 161
3 12 947 486
3 12 486 30
3 12 30 782
3 12 782 947
3 13 495 91
3 13 91 628
3 13 628 629
3 13 629 950
3 13 950 495
3 14 87 450
3 14 450 672
3 14 672 943
3 14 943 915
3 14 915 87
3 15 361 966
3 15 966 869
3 15 869 980
3 15 980 616
3 15 616 644
3 15 644 207
3 15 207 361
3 16 120 371
3 16 371 687
3 16 687 846
3 16 846 709
3 16 709 180
3 16 180 861
3 16 861 366
3 16 366 120
3 17 269 671
3 17 671 576
3 17 576 443
3 17 443 444
3 17 444 431
3 17 431 269
3 18 679 877
3 18 877 788
3 18 788 619
3 18 619 814
3 18 814 679
3 19 105 391
3 19 391 400
3 19 400 221
3 19 221 222
3 19 222 318
3 19 318 841
3 19 841 105
3 20 337 704
3 20 704 57
3 20 57 195
3 20 195 893
3 20 893 337
3 21 48 970
3 21 206 273
3 21 273 412
3 21 412 48
3 22 198 878
3 22 878 457
3 22 457 210
3 22 210 705
3 22 705 781
3 22 781 830
3 22 830 198
3 23 144 887
3 23 887 525
3 23 525 332
3 23 332 602
3 23 602 307
3 23 307 802
3 23 802 144
3 24 126 717
3 24 717 549
3 24 549 783
3 24 783 991
3 24 991 126
3 25 381 516
3 25 516 42
3 25 42 437
3 25 437 856
3 25 856 664
3 26 494 826
3 26 826 69
3 26 69 156
3 26 156 589
3 26 589 494
3 27 135 338
3 27 338 435
3 27 435 876
3 27 876 786
3 27 786 135
3 28 225 80
3 28 80 936
3 28 936 727
3 28 727 199
3 28 199 73
3 28 73 598
3 28 598 225
3 29 182 241
3 29 241 184
3 29 184 603
3 29 603 757
3 29 757 49
3 29 49 968
3 29 968 182
3 30 226 292
3 30 292 782
3 30 486 634
3 30 634 226
3 31 541 366
3 31 366 933
3 31 933 122
3 31 122 59
3 31 59 697
3 31 697 541
3 32 541 798
3 32 798 520
3 32 520 847
3 32 847 990
3 32 990 286
3 32 286 211
3 32 211 120
3 32 120 366
3 32 366 541
3 33 772 452
3 33 452 414
3 33 414 111
3 33 111 926
3 33 926 449
3 33 449 772
3 34 224 558
3 34 558 562
3 34 562 808
3 34 808 303
3 34 303 788
3 34 788 224
3 35 846 132
3 35 132 683
3 35 683 844
3 35 844 903
3 35 903 874
3 35 874 846
3 36 430 579
3 36 579 205
3 36 205 137
3 36 137 711
3 36 711 453
3 36 453 949
3 36 949 568
3 36 568 430
3 37 226 634
3 37 634 989
3 37 989 480
3 37 480 527
3 37 527 507
3 37 507 349
3 37 349 667
3 37 667 226
3 38 577 685
3 38 497 116
3 38 116 53
3 38 53 877
3 38 877 489
3 38 489 967
3 38 967 577
3 39 987 889
3 39 889 793
3 39 793 293
3 39 293 374
3 39 374 794
3 40 304 297
3 40 297 277
3 40 277 261
3 40 261 638
3 40 638 703
3 40 703 304
3 41 235 574
3 41 574 197
3 41 197 543
3 41 543 291
3 41 291 235
3 42 516 257
3 42 257 621
3 42 621 849
3 42 849 660
3 42 660 437
3 43 901 214
3 43 214 917
3 43 917 236
3 43 236 279
3 43 279 901
3 44 654 753
3 44 753 555
3 44 555 182
3 44 182 968
3 44 968 654
3 45 404 499
3 45 499 914
3 45 914 267
3 45 267 557
3 45 557 404
3 46 477 560
3 46 560 283
3 46 283 686
3 46 686 889
3 46 889 477
3 47 245 702
3 47 702 404
3 47 404 976
3 47 976 854
3 47 854 897
3 47 897 974
3 47 974 245
3 48 412 312
3 48 312 852
3 48 852 290
3 48 290 249
3 48 249 501
3 48 501 970
3 49 757 796
3 49 796 922
3 49 922 732
3 49 732 968
3 50 159 715
3 50 715 143
3 50 143 842
3 50 842 393
3 50 393 159
3 51 345 164
3 51 164 145
3 51 145 561
3 51 964 345
3 52 232 402
3 52 402 359
3 52 359 572
3 52 572 595
3 52 595 232
3 53 116 426
3 53 426 788
3 53 788 877
3 54 121 716
3 54 716 490
3 54 490 932
3 54 932 380
3 54 380 941
3 54 941 250
3 54 250 121
3 55 787 551
3 55 551 374
3 55 374 482
3 55 482 217
3 55 217 223
3 55 223 832
3 55 832 787
3 56 91 675
3 56 675 804
3 56 804 462
3 56 462 957
3 56 957 984
3 56 984 91
3 57 431 898
3 57 898 609
3 57 609 388
3 57 388 195
3 57 704 952
3 57 952 431
3 58 645 90
3 58 90 969
3 58 969 302
3 58 302 575
3 58 575 833
3 58 833 645
3 59 122 494
3 59 494 589
3 59 589 697
3 60 457 949
3 60 949 170
3 60 170 691
3 60 691 210
3 60 210 457
3 61 694 384
3 61 384 578
3 61 578 108
3 61 108 791
3 61 791 694
3 62 283 233
3 62 233 637
3 62 637 476
3 62 476 686
3 62 686 283
3 63 870 323
3 63 323 110
3 63 110 765
3 63 765 870
3 64 499 326
3 64 326 505
3 64 505 613
3 64 613 858
3 64 858 499
3 65 179 234
3 65 234 411
3 65 411 208
3 65 208 356
3 65 356 179
3 66 327 335
3 66 335 698
3 66 698 240
3 66 240 129
3 66 129 280
3 66 280 437
3 66 437 660
3 66 660 327
3 67 312 412
3 67 412 273
3 67 273 718
3 67 718 274
3 67 274 387
3 67 387 312
3 68 167 301
3 68 301 840
3 68 840 405
3 68 405 409
3 68 409 347
3 68 347 905
3 68 905 167
3 69 826 746
3 69 746 730
3 69 730 767
3 69 767 156
3 70 219 72
3 70 72 154
3 70 154 955
3 70 955 789
3 70 789 155
3 70 155 348
3 70 348 597
3 70 597 219
3 71 498 629
3 71 629 628
3 71 628 91
3 71 91 984
3 71 984 158
3 71 158 729
3 71 729 498
3 72 180 709
3 72 709 154
3 72 219 965
3 72 965 180
3 73 199 300
3 73 300 598
3 74 842 176
3 74 592 251
3 74 251 393
3 74 393 842
3 75 162 593
3 75 593 508
3 75 508 269
3 75 269 162
3 76 492 147
3 76 147 510
3 76 510 112
3 76 112 600
3 76 600 492
3 77 527 480
3 77 480 208
3 77 208 411
3 77 411 249
3 77 249 527
3 78 654 732
3 78 732 461
3 78 461 336
3 78 336 940
3 78 940 753
3 78 753 654
3 79 756 945
3 79 945 633
3 79 633 763
3 79 763 559
3 79 559 756
3 80 225 864
3 80 864 81
3 80 81 936
3 81 97 727
3 81 727 936
3 81 864 932
3 81 932 626
3 81 626 832
3 81 832 97
3 82 634 542
3 82 542 394
3 82 394 475
3 82 475 512
3 82 512 119
3 82 119 447
3 82 447 989
3 82 989 634
3 83 204 931
3 83 931 757
3 83 191 962
3 83 962 204
3 84 921 123
3 84 123 166
3 84 166 972
3 84 972 921
3 85 448 588
3 85 588 372
3 85 372 353
3 85 353 392
3 85 392 438
3 85 438 643
3 85 643 455
3 85 455 469
3 85 469 448
3 86 587 125
3 86 125 473
3 86 473 858
3 86 858 587
3 87 915 383
3 87 383 537
3 87 537 314
3 87 314 319
3 87 319 450
3 88 665 855
3 88 855 661
3 88 661 720
3 88 720 201
3 88 201 665
3 89 770 823
3 89 823 803
3 89 803 562
3 89 562 408
3 89 408 979
3 89 979 186
3 89 186 921
3 89 921 770
3 90 645 134
3 90 134 421
3 90 421 969
3 91 495 680
3 91 680 675
3 92 801 759
3 92 759 920
3 92 920 859
3 92 859 808
3 92 808 801
3 93 403 470
3 93 470 521
3 93 521 325
3 93 325 441
3 93 441 403
3 94 241 607
3 94 607 899
3 94 899 632
3 94 632 184
3 94 184 241
3 95 109 263
3 95 263 324
3 95 324 101
3 95 101 362
3 95 362 109
3 96 281 522
3 96 522 986
3 96 986 118
3 96 118 463
3 96 463 569
3 96 569 504
3 96 504 957
3 96 957 281
3 97 223 127
3 97 127 692
3 97 692 727
3 97 832 223
3 98 361 207
3 98 207 896
3 98 896 580
3 98 580 693
3 98 693 520
3 98 520 798
3 98 798 361
3 99 377 755
3 99 755 825
3 99 825 638
3 99 638 261
3 99 261 883
3 99 883 319
3 99 319 534
3 99 534 377
3 100 195 388
3 100 388 685
3 100 685 960
3 100 960 195
3 101 324 986
3 101 986 389
3 101 389 706
3 101 706 362
3 102 363 773
3 102 773 519
3 102 519 953
3 102 953 518
3 102 518 737
3 102 737 884
3 102 884 363
3 103 239 694
3 103 694 791
3 103 791 108
3 103 108 747
3 103 747 567
3 103 567 924
3 103 924 264
3 103 264 663
3 103 663 239
3 104 580 744
3 104 744 543
3 104 543 942
3 104 942 580
3 105 841 544
3 105 544 306
3 105 306 391
3 106 661 730
3 106 730 627
3 106 627 811
3 106 811 978
3 106 978 720
3 106 720 661
3 107 240 146
3 107 146 398
3 107 398 354
3 107 354 129
3 107 129 240
3 108 578 348
3 108 345 747
3 109 362 460
3 109 547 263
3 110 323 659
3 110 659 721
3 110 721 749
3 110 749 765
3 111 721 809
3 111 809 926
3 111 414 749
3 111 749 721
3 112 306 600
3 112 510 202
3 112 202 930
3 112 930 306
3 113 477 496
3 113 496 571
3 113 571 523
3 113 523 172
3 113 172 560
3 113 560 477
3 114 323 950
3 114 950 229
3 114 229 140
3 114 140 531
3 114 531 659
3 114 659 323
3 115 477 889
3 115 889 987
3 115 496 477
3 116 497 407
3 116 407 213
3 116 213 260
3 116 260 426
3 117 536 396
3 117 396 398
3 117 398 348
3 117 348 754
3 117 754 536
3 118 255 630
3 118 630 463
3 118 986 227
3 118 227 427
3 118 427 778
3 118 778 215
3 118 215 255
3 119 512 218
3 119 218 646
3 119 646 447
3 120 211 371
3 121 250 298
3 121 298 759
3 121 759 635
3 121 635 716
3 122 933 556
3 122 556 745
3 122 745 401
3 122 401 696
3 122 696 494
3 123 921 805
3 123 805 787
3 123 787 836
3 123 836 166
3 124 597 925
3 124 925 556
3 124 556 965
3 124 965 597
3 125 126 881
3 125 881 473
3 125 587 276
3 125 276 126
3 126 276 717
3 126 991 615
3 126 615 881
3 127 223 958
3 127 958 151
3 127 151 916
3 127 916 692
3 128 570 533
3 128 533 164
3 128 164 345
3 129 354 655
3 129 655 280
3 130 742 265
3 130 265 865
3 130 865 902
3 130 902 430
3 130 430 904
3 130 904 317
3 130 317 390
3 130 390 742
3 131 914 858
3 131 959 456
3 131 456 557
3 131 557 267
3 131 267 914
3 132 565 171
3 132 171 459
3 132 459 683
3 132 846 502
3 132 502 493
3 132 493 604
3 132 604 565
3 133 587 464
3 133 464 596
3 133 596 509
3 133 509 648
3 133 648 717
3 133 717 587
3 134 645 485
3 134 485 860
3 134 860 760
3 134 760 563
3 134 563 975
3 134 975 421
3 135 786 599
3 135 599 781
3 135 781 513
3 135 513 708
3 135 708 338
3 136 289 871
3 136 871 895
3 136 895 738
3 136 738 945
3 136 945 756
3 136 756 559
3 136 559 865
3 136 865 265
3 136 265 742
3 136 742 289
3 137 205 911
3 137 911 515
3 137 515 270
3 137 270 711
3 138 701 764
3 138 764 502
3 138 502 846
3 138 846 687
3 138 687 983
3 138 983 701
3 139 227 324
3 139 324 263
3 139 263 547
3 139 547 774
3 139 774 668
3 139 668 427
3 139 427 227
3 140 229 458
3 140 458 487
3 140 487 799
3 140 799 739
3 140 739 142
3 140 142 531
3 141 382 961
3 141 961 299
3 141 299 365
3 141 365 820
3 141 820 382
3 142 739 187
3 142 187 468
3 142 468 809
3 142 809 531
3 143 715 228
3 143 228 175
3 143 175 842
3 144 159 251
3 144 251 592
3 144 592 887
3 144 802 790
3 144 790 159
3 145 164 533
3 145 533 169
3 145 169 948
3 145 948 553
3 145 553 561
3 146 240 698
3 146 698 310
3 146 310 806
3 146 806 398
3 147 492 718
3 147 718 256
3 147 256 892
3 147 892 311
3 147 311 510
3 148 370 439
3 148 439 656
3 148 656 804
3 148 804 417
3 148 417 946
3 148 946 529
3 148 529 610
3 148 610 370
3 149 406 309
3 149 309 777
3 150 255 215
3 150 215 715
3 150 715 790
3 150 790 255
3 151 686 476
3 151 476 916
3 151 958 793
3 151 793 889
3 151 889 686
3 152 161 517
3 152 517 802
3 152 802 307
3 152 307 165
3 152 165 161
3 153 938 771
3 153 771 183
3 153 183 908
3 153 908 935
3 153 935 478
3 153 478 938
3 154 709 874
3 154 874 903
3 154 903 955
3 155 459 536
3 155 536 754
3 155 754 348
3 155 789 683
3 155 683 459
3 156 767 769
3 156 769 824
3 156 824 442
3 156 442 589
3 157 641 181
3 157 181 528
3 157 528 433
3 157 433 641
3 158 984 504
3 158 504 862
3 158 862 857
3 158 857 729
3 159 393 251
3 159 790 715
3 160 764 701
3 160 701 564
3 160 564 669
3 160 669 751
3 160 751 764
3 161 165 927
3 161 927 548
3 161 862 463
3 161 463 630
3 161 630 346
3 161 346 517
3 162 269 431
3 162 431 952
3 162 952 328
3 162 328 816
3 162 816 885
3 162 885 593
3 163 920 619
3 163 619 303
3 163 303 859
3 163 859 920
3 165 307 602
3 165 602 927
3 166 626 972
3 166 836 780
3 166 780 832
3 166 832 626
3 167 905 961
3 167 961 301
3 168 308 610
3 168 610 529
3 168 529 888
3 168 888 313
3 168 313 308
3 169 533 666
3 169 666 811
3 169 811 948
3 170 949 453
3 170 453 339
3 170 339 691
3 171 565 985
3 171 985 193
3 171 193 459
3 172 238 867
3 172 867 560
3 172 523 370
3 172 370 238
3 173 365 642
3 173 642 456
3 173 456 959
3 173 959 944
3 173 944 873
3 173 873 365
3 174 247 331
3 174 331 736
3 174 736 472
3 174 472 420
3 174 420 247
3 175 228 668
3 175 668 774
3 177 233 283
3 177 283 560
3 177 560 867
3 177 867 308
3 177 308 233
3 178 313 495
3 178 495 950
3 178 950 323
3 178 323 313
3 179 356 350
3 179 350 445
3 179 445 236
3 179 236 917
3 179 917 234
3 180 965 556
3 180 556 861
3 181 641 203
3 181 203 266
3 181 266 528
3 182 386 241
3 182 555 392
3 182 392 386
3 183 771 448
3 183 448 521
3 183 521 470
3 183 470 908
3 184 632 603
3 185 830 599
3 185 599 190
3 185 190 585
3 185 585 830
3 186 979 540
3 186 540 822
3 186 822 921
3 187 739 287
3 187 287 910
3 187 910 468
3 188 980 939
3 188 939 831
3 188 831 616
3 188 616 980
3 189 712 614
3 189 614 375
3 189 375 923
3 189 923 785
3 189 785 940
3 189 940 712
3 190 614 776
3 190 776 585
3 190 599 614
3 191 603 632
3 191 632 899
3 191 899 684
3 191 684 962
3 192 216 795
3 192 795 503
3 192 503 297
3 192 297 216
3 193 985 459
3 194 982 378
3 194 378 740
3 194 740 358
3 194 358 800
3 194 800 982
3 195 960 893
3 196 441 590
3 196 590 611
3 196 611 733
3 196 733 651
3 196 651 441
3 197 574 768
3 197 768 827
3 197 827 434
3 197 434 951
3 197 951 379
3 197 379 543
3 198 585 919
3 198 919 878
3 198 830 585
3 199 727 692
3 199 692 440
3 199 440 300
3 200 943 608
3 200 608 399
3 200 399 835
3 200 835 943
3 201 947 271
3 201 271 584
3 201 584 665
3 201 720 218
3 201 218 475
3 201 475 394
3 201 394 542
3 201 542 486
3 201 486 947
3 202 510 740
3 202 740 572
3 202 572 315
3 202 315 930
3 203 478 872
3 203 872 266
3 203 641 244
3 203 244 601
3 203 601 591
3 203 591 478
3 204 962 364
3 204 364 514
3 204 514 312
3 204 312 387
3 204 387 931
3 205 579 254
3 205 254 674
3 205 674 330
3 205 330 911
3 206 777 612
3 206 612 273
3 207 644 896
3 208 480 891
3 208 891 356
3 209 331 247
3 209 247 420
3 209 420 636
3 209 636 373
3 209 373 672
3 209 672 331
3 210 691 705
3 211 286 983
3 211 983 371
3 212 383 231
3 212 231 639
3 212 639 699
3 212 699 243
3 212 243 763
3 212 763 383
3 213 407 929
3 213 929 488
3 213 488 479
3 213 479 454
3 213 454 260
3 214 501 917
3 214 901 970
3 214 970 501
3 215 778 812
3 215 812 715
3 216 982 795
3 216 297 304
3 216 304 288
3 216 288 378
3 216 378 982
3 217 482 977
3 217 977 958
3 217 958 223
3 218 473 681
3 218 681 646
3 218 512 475
3 219 597 965
3 220 344 538
3 220 538 399
3 220 399 608
3 220 608 344
3 221 400 359
3 221 359 755
3 221 755 377
3 221 377 222
3 222 377 677
3 222 677 237
3 222 237 318
3 224 788 426
3 224 426 260
3 224 260 454
3 224 454 558
3 225 598 418
3 225 418 566
3 225 566 864
3 226 667 385
3 226 385 620
3 226 620 292
3 227 986 324
3 228 778 668
3 228 715 812
3 228 812 778
3 229 410 458
3 229 950 866
3 229 866 710
3 229 710 410
3 230 800 253
3 230 253 648
3 230 648 509
3 230 509 817
3 230 817 795
3 230 795 982
3 230 982 800
3 231 383 915
3 231 915 640
3 231 640 639
3 232 359 402
3 232 595 825
3 232 825 755
3 232 755 359
3 233 308 313
3 233 313 870
3 233 870 637
3 234 917 501
3 234 501 411
3 235 291 618
3 235 618 432
3 235 432 938
3 235 938 768
3 235 768 574
3 236 445 731
3 236 731 991
3 236 991 279
3 237 677 296
3 237 296 429
3 237 429 738
3 237 738 895
3 237 895 737
3 237 737 318
3 238 370 308
3 238 308 867
3 239 663 745
3 239 745 694
3 241 386 372
3 241 372 275
3 241 275 607
3 242 852 912
3 242 912 831
3 242 831 507
3 242 507 527
3 242 527 290
3 242 290 852
3 243 699 652
3 243 652 506
3 243 506 865
3 243 865 559
3 243 559 763
3 244 641 564
3 244 564 546
3 244 546 617
3 244 617 601
3 245 678 702
3 245 974 503
3 245 503 795
3 245 795 817
3 245 817 678
3 246 585 776
3 246 776 532
3 246 532 647
3 246 647 904
3 246 904 568
3 246 568 919
3 246 919 585
3 248 266 342
3 248 342 741
3 248 741 257
3 248 257 516
3 248 516 381
3 248 381 528
3 248 528 266
3 249 411 501
3 249 290 527
3 250 941 500
3 250 500 673
3 250 673 298
3 252 623 335
3 252 335 894
3 252 894 649
3 252 649 623
3 253 783 549
3 253 549 717
3 253 717 648
3 253 800 309
3 253 309 783
3 254 579 837
3 254 837 775
3 254 775 674
3 255 790 863
3 255 863 346
3 255 346 630
3 256 718 471
3 256 471 309
3 256 309 892
3 257 741 909
3 257 909 621
3 258 660 849
3 258 849 928
3 258 928 436
3 258 436 327
3 258 327 660
3 259 450 316
3 259 316 352
3 259 352 294
3 259 294 331
3 259 331 672
3 259 672 450
3 261 277 347
3 261 347 883
3 262 508 837
3 262 837 430
3 262 430 902
3 262 902 508
3 264 924 657
3 264 657 750
3 264 750 663
3 266 872 342
3 268 856 465
3 268 465 604
3 268 604 664
3 268 664 856
3 269 508 671
3 270 515 829
3 270 829 339
3 270 339 711
3 271 782 583
3 271 583 767
3 271 767 584
3 271 947 782
3 272 377 534
3 272 534 314
3 272 314 537
3 272 537 624
3 272 624 631
3 272 631 377
3 273 612 718
3 274 718 492
3 274 492 676
3 274 676 792
3 274 792 387
3 275 725 607
3 275 372 588
3 275 588 618
3 275 618 725
3 276 587 717
3 277 297 347
3 278 295 728
3 278 728 530
3 278 530 554
3 278 554 295
3 279 991 783
3 279 783 406
3 280 655 355
3 280 355 856
3 280 856 437
3 281 957 462
3 281 462 522
3 282 602 332
3 282 332 766
3 282 766 474
3 282 474 723
3 282 723 602
3 284 548 838
3 284 838 728
3 284 728 451
3 285 435 581
3 285 581 851
3 285 851 981
3 285 981 455
3 285 455 876
3 285 876 435
3 286 701 983
3 286 990 701
3 287 739 594
3 287 594 910
3 288 304 703
3 288 703 378
3 289 742 376
3 289 376 871
3 291 322 369
3 291 369 725
3 291 725 618
3 291 543 744
3 291 744 322
3 292 620 845
3 292 845 769
3 292 769 767
3 292 767 782
3 293 793 482
3 293 482 374
3 294 352 405
3 294 405 368
3 294 368 954
3 294 954 472
3 294 472 736
3 294 736 331
3 295 329 451
3 295 451 728
3 295 554 713
3 295 713 329
3 296 677 631
3 296 631 734
3 296 734 738
3 296 738 429
3 297 503 974
3 297 974 897
3 297 897 347
3 298 673 920
3 298 920 759
3 299 934 365
3 299 961 934
3 300 440 476
3 300 476 452
3 300 452 772
3 300 772 598
3 301 961 446
3 301 446 840
3 302 969 530
3 302 530 728
3 302 728 575
3 303 619 788
3 303 808 859
3 305 719 443
3 305 443 321
3 305 321 640
3 305 640 835
3 305 835 719
3 306 544 461
3 306 461 732
3 306 732 600
3 306 930 391
3 308 370 610
3 309 406 783
3 309 800 892
3 309 471 612
3 309 612 777
3 310 698 623
3 310 623 662
3 310 662 806
3 311 892 358
3 311 358 740
3 311 740 510
3 312 514 852
3 313 888 495
3 313 323 870
3 314 534 319
3 315 359 343
3 315 343 930
3 315 572 359
3 316 450 352
3 317 904 376
3 317 376 390
3 318 518 841
3 318 737 518
3 319 883 880
3 319 880 352
3 319 352 450
3 320 452 637
3 320 637 765
3 320 765 650
3 320 650 452
3 321 722 699
3 321 699 639
3 321 639 640
3 321 443 722
3 322 744 580
3 322 580 896
3 322 896 971
3 322 971 714
3 322 714 875
3 322 875 369
3 325 590 441
3 325 521 422
3 325 422 851
3 325 851 590
3 326 499 404
3 326 404 956
3 326 956 505
3 327 436 821
3 327 821 689
3 327 689 335
3 328 952 704
3 328 704 337
3 328 337 816
3 329 713 498
3 329 498 761
3 329 761 451
3 330 674 784
3 330 784 941
3 330 941 911
3 332 525 766
3 333 872 935
3 333 935 908
3 333 908 441
3 333 441 651
3 333 651 413
3 333 413 760
3 333 760 872
3 334 760 688
3 334 688 741
3 334 741 342
3 334 342 872
3 334 872 760
3 335 689 894
3 335 623 698
3 336 461 544
3 336 544 953
3 336 953 519
3 336 519 773
3 336 773 940
3 337 893 839
3 337 839 816
3 338 708 810
3 338 810 435
3 339 418 691
3 339 453 711
3 339 829 566
3 339 566 418
3 340 550 552
3 340 552 893
3 340 893 868
3 340 868 937
3 340 937 679
3 340 679 814
3 340 814 550
3 341 647 532
3 341 532 614
3 341 614 712
3 341 712 360
3 341 360 647
3 343 359 400
3 343 400 391
3 343 391 930
3 344 608 367
3 344 367 815
3 344 815 605
3 344 605 538
3 345 964 918
3 345 918 747
3 346 863 517
3 347 897 854
3 347 854 905
3 347 409 883
3 348 578 384
3 348 384 597
3 349 385 667
3 349 507 939
3 349 939 385
3 350 356 447
3 350 447 646
3 350 646 681
3 350 681 726
3 350 726 445
3 351 598 772
3 351 772 449
3 351 449 879
3 351 879 598
3 352 880 405
3 353 372 386
3 353 386 392
3 354 545 655
3 354 398 396
3 354 396 545
3 355 655 545
3 355 545 819
3 355 819 465
3 355 465 856
3 356 891 447
3 357 494 907
3 357 907 748
3 357 748 850
3 357 850 746
3 357 746 826
3 357 826 494
3 358 892 800
3 360 376 647
3 360 712 886
3 360 886 884
3 360 884 895
3 360 895 871
3 360 871 376
3 361 798 834
3 361 834 966
3 362 706 460
3 363 395 773
3 363 884 886
3 363 886 395
3 364 962 684
3 364 684 714
3 364 714 906
3 364 906 779
3 364 779 514
3 365 934 642
3 365 873 423
3 365 423 820
3 366 861 933
3 367 420 815
3 367 608 848
3 367 848 636
3 367 636 420
3 368 405 840
3 368 840 446
3 368 446 954
3 369 607 725
3 369 875 582
3 369 582 607
3 370 523 439
3 371 983 687
3 373 636 943
3 373 943 672
3 374 419 794
3 374 551 758
3 374 758 419
3 375 614 599
3 375 599 786
3 375 786 483
3 375 483 923
3 376 904 647
3 376 742 390
3 377 631 677
3 378 703 740
3 379 951 586
3 379 586 617
3 379 617 546
3 379 546 847
3 379 847 658
3 379 658 942
3 379 942 543
3 380 932 864
3 380 864 566
3 380 566 653
3 380 653 941
3 381 433 528
3 382 820 524
3 382 524 446
3 382 446 961
3 383 763 633
3 383 633 537
3 384 694 416
3 384 416 597
3 385 939 980
3 385 980 415
3 385 415 620
3 387 792 931
3 388 609 700
3 388 700 685
3 389 522 706
3 389 986 522
3 392 555 438
3 395 886 712
3 395 712 940
3 395 940 773
3 396 536 695
3 396 695 565
3 396 565 545
3 397 616 831
3 397 831 466
3 397 466 906
3 397 906 971
3 397 971 644
3 397 644 616
3 398 806 625
3 399 538 622
3 399 622 743
3 399 743 835
3 401 745 750
3 401 750 657
3 401 657 696
3 403 441 908
3 403 908 470
3 404 702 956
3 404 557 976
3 405 880 409
3 407 497 929
3 408 562 558
3 408 558 454
3 408 454 479
3 408 479 539
3 408 539 979
3 409 880 883
3 410 710 713
3 410 713 554
3 410 554 458
3 413 651 724
3 413 724 563
3 413 563 760
3 414 452 650
3 414 650 765
3 414 765 749
3 415 980 973
3 415 973 425
3 415 425 824
3 415 824 620
3 416 925 597
3 416 694 925
3 417 675 680
3 417 680 888
3 417 888 946
3 417 804 675
3 418 879 449
3 418 449 691
3 418 598 879
3 419 758 828
3 419 828 805
3 419 805 921
3 419 921 794
3 421 487 554
3 421 554 969
3 421 975 487
3 422 521 448
3 422 448 469
3 422 469 981
3 422 981 851
3 423 873 843
3 423 843 524
3 423 524 820
3 424 941 653
3 424 653 566
3 424 566 829
3 424 829 941
3 425 973 963
3 425 963 697
3 425 697 442
3 425 442 824
3 427 668 778
3 428 679 937
3 428 937 967
3 428 967 679
3 430 837 579
3 430 568 904
3 431 444 898
3 432 588 448
3 432 448 771
3 432 771 938
3 432 618 588
3 433 669 564
3 433 564 641
3 434 827 601
3 434 601 617
3 434 617 586
3 434 586 951
3 435 810 690
3 435 690 581
3 436 575 818
3 436 818 821
3 436 928 833
3 436 833 575
3 438 555 797
3 438 797 900
3 438 900 643
3 439 523 571
3 439 571 460
3 439 460 656
3 440 916 476
3 440 692 916
3 442 697 589
3 443 719 743
3 443 743 988
3 443 988 444
3 443 576 722
3 444 988 898
3 445 726 882
3 445 882 731
3 446 472 954
3 447 480 989
3 447 891 480
3 449 513 705
3 449 705 691
3 449 926 809
3 449 809 913
3 449 913 513
3 451 761 573
3 452 476 637
3 455 981 469
3 455 643 900
3 455 900 876
3 456 642 976
3 456 976 557
3 457 878 949
3 458 554 487
3 459 985 536
3 460 706 656
3 462 804 522
3 463 862 569
3 464 587 890
3 464 890 596
3 465 819 604
3 466 831 912
3 466 912 779
3 466 779 906
3 467 890 613
3 467 613 505
3 467 505 956
3 467 956 702
3 467 702 890
3 468 910 690
3 468 690 913
3 468 913 809
3 471 718 612
3 473 881 526
3 473 526 681
3 474 766 853
3 474 853 894
3 474 894 723
3 478 591 938
3 478 935 872
3 479 488 539
3 481 730 746
3 481 746 850
3 481 850 627
3 481 627 730
3 482 793 977
3 483 876 900
3 483 900 923
3 483 786 876
3 484 500 807
3 484 807 920
3 484 920 673
3 484 673 500
3 485 645 833
3 485 833 849
3 485 849 621
3 485 621 762
3 485 762 688
3 485 688 860
3 486 542 634
3 487 975 799
3 489 877 679
3 489 679 967
3 490 716 635
3 490 635 682
3 490 682 932
3 491 751 813
3 491 813 493
3 491 493 502
3 491 502 764
3 491 764 751
3 492 600 676
3 493 813 604
3 494 696 907
3 495 888 680
3 498 729 761
3 498 713 629
3 499 858 914
3 500 941 807
3 504 984 957
3 504 569 862
3 506 652 671
3 506 671 508
3 506 508 902
3 506 902 865
3 507 831 939
3 508 593 885
3 508 885 992
3 508 992 775
3 508 775 837
3 509 596 678
3 509 678 817
3 511 811 666
3 511 666 535
3 511 535 811
3 513 913 810
3 513 810 708
3 513 781 705
3 514 779 852
3 515 911 829
3 517 863 802
3 518 953 841
3 520 693 658
3 520 658 847
3 522 804 706
3 525 887 592
3 526 726 681
3 526 881 731
3 526 731 882
3 526 882 726
3 529 946 888
3 530 969 554
3 531 809 721
3 531 721 659
3 532 776 614
3 533 570 535
3 533 535 666
3 535 720 811
3 536 985 695
3 537 633 734
3 537 734 624
3 538 605 622
3 539 822 540
3 539 540 979
3 541 697 963
3 541 963 966
3 541 966 834
3 541 834 798
3 544 841 953
3 545 565 819
3 546 564 701
3 546 701 990
3 546 990 847
3 548 927 838
3 550 807 552
3 550 814 920
3 550 920 807
3 551 787 805
3 551 805 758
3 552 807 784
3 552 784 839
3 552 839 893
3 553 948 627
3 553 627 850
3 553 850 561
3 555 753 797
3 556 925 745
3 556 933 861
3 562 803 808
3 563 724 975
3 565 695 985
3 565 604 819
3 567 747 964
3 567 850 748
3 567 748 924
3 568 949 878
3 568 878 919
3 572 740 703
3 572 703 595
3 573 761 857
3 575 728 838
3 575 838 818
3 576 671 722
3 577 868 685
3 577 967 937
3 577 937 868
3 580 942 693
3 581 690 910
3 581 910 594
3 581 594 851
3 582 875 714
3 582 714 684
3 582 684 607
3 583 782 767
3 584 767 730
3 584 730 665
3 587 858 613
3 587 613 890
3 590 851 611
3 591 601 606
3 591 606 938
3 594 739 735
3 594 735 851
3 595 703 638
3 595 638 825
3 596 890 702
3 596 702 678
3 599 830 781
3 600 732 922
3 600 922 676
3 601 827 606
3 602 723 752
3 602 752 927
3 604 813 664
3 605 815 700
3 605 700 609
3 605 609 988
3 605 988 743
3 605 743 622
3 606 768 938
3 606 827 768
3 607 684 899
3 608 943 636
3 608 636 848
3 609 898 988
3 611 851 735
3 611 735 799
3 611 799 733
3 615 731 881
3 615 991 731
3 619 920 814
3 620 824 845
3 621 909 762
3 623 649 662
3 624 734 631
3 625 806 662
3 625 662 649
3 625 649 853
3 625 853 766
3 626 932 682
3 626 682 707
3 626 707 972
3 627 948 811
3 629 713 866
3 629 866 950
3 633 945 738
3 633 738 734
3 635 759 770
3 635 770 972
3 635 972 707
3 635 707 682
3 637 870 765
3 640 915 943
3 640 943 835
3 642 934 854
3 642 854 976
3 644 971 896
3 649 894 853
3 651 733 799
3 651 799 724
3 652 699 671
3 654 968 732
3 656 706 804
3 657 924 748
3 657 748 696
3 658 693 942
3 661 855 730
3 663 750 745
3 665 730 855
3 669 813 751
3 670 966 963
3 670 963 973
3 670 973 869
3 670 869 966
3 671 699 722
3 674 775 784
3 676 922 796
3 676 796 792
3 683 789 844
3 685 700 815
3 685 868 893
3 685 893 960
3 688 762 741
3 688 760 860
3 689 821 752
3 689 752 723
3 689 723 894
3 690 810 913
3 694 745 925
3 696 748 907
3 709 846 874
3 710 866 713
3 714 971 906
3 719 835 743
3 720 978 811
3 724 799 975
3 729 857 761
3 735 739 799
3 737 895 884
3 741 762 909
3 747 918 964
3 752 821 818
3 752 818 838
3 752 838 927
3 753 940 797
3 757 931 792
3 757 792 796
3 758 805 828
3 759 801 770
3 769 845 824
3 770 921 972
3 770 801 823
3 775 992 784
3 779 912 852
3 780 836 787
3 780 787 832
3 784 992 816
3 784 816 839
3 784 807 941
3 785 923 900
3 785 900 797
3 785 797 940
3 789 955 844
3 790 802 863
3 793 958 977
3 794 921 822
3 801 808 803
3 801 803 823
3 816 992 885
3 829 911 941
3 833 928 849
3 843 873 944
3 844 955 903
3 854 934 905
3 869 973 980
3 905 934 961
